<svg width="20" height="20" viewBox="0 0 20 20" fill="none" xmlns="http://www.w3.org/2000/svg">
<g clip-path="url(#clip0_138_82)">
<path d="M17.5 10H15C14.0808 10 13.3333 10.7475 13.3333 11.6667C13.3333 12.5858 12.5858 13.3333 11.6667 13.3333H8.33333C7.41417 13.3333 6.66667 12.5858 6.66667 11.6667C6.66667 10.7475 5.91917 10 5 10H2.5C1.12167 10 0 11.1217 0 12.5V15.8333C0 18.1308 1.86917 20 4.16667 20H15.8333C18.1308 20 20 18.1308 20 15.8333V12.5C20 11.1217 18.8783 10 17.5 10ZM18.3333 15.8333C18.3333 17.2117 17.2117 18.3333 15.8333 18.3333H4.16667C2.78833 18.3333 1.66667 17.2117 1.66667 15.8333V12.5C1.66667 12.04 2.04 11.6667 2.5 11.6667L5 11.665V11.6667C5 13.505 6.495 15 8.33333 15H11.6667C13.505 15 15 13.505 15 11.6667H17.5C17.96 11.6667 18.3333 12.04 18.3333 12.5V15.8333ZM6.0775 5.93417C5.75167 5.60833 5.75167 5.08167 6.0775 4.75583C6.40333 4.43 6.93 4.43 7.25583 4.75583L9.16667 6.66667V0.833333C9.16667 0.3725 9.53917 0 10 0C10.4608 0 10.8333 0.3725 10.8333 0.833333V6.66667L12.7442 4.75583C13.07 4.43 13.5967 4.43 13.9225 4.75583C14.2483 5.08167 14.2483 5.60833 13.9225 5.93417L11.1783 8.67833C10.8558 9.00083 10.4317 9.16333 10.0075 9.165L10 9.16667L9.9925 9.165C9.56833 9.16333 9.14417 9.00083 8.82167 8.67833L6.0775 5.93417Z" fill="#2E2E2E"/>
</g>
<defs>
<clipPath id="clip0_138_82">
<rect width="20" height="20" fill="white"/>
</clipPath>
</defs>
</svg>
