<svg width="35" height="35" viewBox="0 0 35 35" fill="none" xmlns="http://www.w3.org/2000/svg">
<g clip-path="url(#clip0_191_538)">
<path d="M17.5018 25.0396C16.5436 25.0413 15.5945 24.8541 14.7087 24.4888C13.8228 24.1234 13.0177 23.5871 12.3393 22.9104L0.424733 10.9958C0.150124 10.7212 -0.00415039 10.3488 -0.00415039 9.96039C-0.00415039 9.57204 0.150124 9.19959 0.424733 8.92498C0.699343 8.65037 1.07179 8.49609 1.46015 8.49609C1.84851 8.49609 2.22096 8.65037 2.49557 8.92498L14.4102 20.8396C15.2305 21.6589 16.3424 22.119 17.5018 22.119C18.6612 22.119 19.7732 21.6589 20.5935 20.8396L32.5081 8.92498C32.7827 8.65037 33.1551 8.49609 33.5435 8.49609C33.9318 8.49609 34.3043 8.65037 34.5789 8.92498C34.8535 9.19959 35.0078 9.57204 35.0078 9.96039C35.0078 10.3488 34.8535 10.7212 34.5789 10.9958L22.6643 22.9104C21.9859 23.5871 21.1808 24.1234 20.295 24.4888C19.4092 24.8541 18.46 25.0413 17.5018 25.0396Z" fill="#515151"/>
</g>
<defs>
<clipPath id="clip0_191_538">
<rect width="35" height="35" fill="white"/>
</clipPath>
</defs>
</svg>
