<svg width="25" height="25" viewBox="0 0 25 25" fill="none" xmlns="http://www.w3.org/2000/svg">
<g clip-path="url(#clip0_120_20)">
<path d="M1.95682 18.6232C1.05179 19.8728 0.402231 21.2888 0.0453624 22.7899C-0.0228062 23.0887 -0.0140226 23.4 0.070891 23.6945C0.155805 23.9891 0.314071 24.2572 0.530872 24.4739C0.747672 24.6906 1.01592 24.8488 1.31049 24.9335C1.60507 25.0183 1.91633 25.0269 2.21515 24.9586C3.71395 24.6012 5.12767 23.952 6.37557 23.0482C6.96236 22.4622 7.29235 21.6672 7.29293 20.8379C7.29352 20.0087 6.96466 19.2131 6.3787 18.6263C5.79273 18.0395 4.99767 17.7096 4.16841 17.709C3.33914 17.7084 2.54361 18.0372 1.95682 18.6232ZM4.90265 21.5701C4.06308 22.1078 3.15112 22.5231 2.19432 22.8034C2.47503 21.8468 2.89029 20.9349 3.42765 20.0951C3.62411 19.9053 3.88724 19.8003 4.16036 19.8027C4.43349 19.8051 4.69475 19.9146 4.88788 20.1078C5.08102 20.3009 5.19057 20.5622 5.19294 20.8353C5.19531 21.1084 5.09032 21.3715 4.90057 21.568L4.90265 21.5701ZM18.7495 8.85445C18.7495 9.54512 18.4752 10.2075 17.9868 10.6959C17.4984 11.1843 16.836 11.4586 16.1454 11.4586C15.4547 11.4586 14.7923 11.1843 14.3039 10.6959C13.8156 10.2075 13.5412 9.54512 13.5412 8.85445C13.5412 8.16378 13.8156 7.5014 14.3039 7.01303C14.7923 6.52465 15.4547 6.25029 16.1454 6.25029C16.836 6.25029 17.4984 6.52465 17.9868 7.01303C18.4752 7.5014 18.7495 8.16378 18.7495 8.85445ZM21.8454 0.000285079C19.3665 -0.014451 16.9175 0.542292 14.6886 1.62729C12.4597 2.7123 10.5108 4.29637 8.99328 6.25654C7.33821 6.31375 5.71491 6.72695 4.2339 7.46799C2.51642 8.25886 1.11436 9.60369 0.252654 11.2867C0.0504347 11.7563 -0.0316481 12.2688 0.0138176 12.778C0.0592832 13.2872 0.230865 13.7771 0.513071 14.2034C0.79797 14.6402 1.18733 14.9989 1.64587 15.2472C2.10442 15.4955 2.61766 15.6254 3.13911 15.6253H5.7287C6.6942 15.6299 7.61883 16.0155 8.30155 16.6983C8.98427 17.381 9.36987 18.3056 9.37453 19.2711V21.8607C9.37416 22.382 9.5038 22.8951 9.75171 23.3536C9.99962 23.8121 10.358 24.2016 10.7943 24.4867C11.2206 24.7689 11.7105 24.9405 12.2197 24.986C12.7289 25.0315 13.2414 24.9494 13.711 24.7472C15.394 23.8855 16.7389 22.4834 17.5297 20.7659C18.2708 19.2849 18.684 17.6616 18.7412 16.0065C20.7045 14.4851 22.2905 12.5314 23.3759 10.2974C24.4613 8.0633 25.0169 5.60902 24.9995 3.12529C24.9983 2.71279 24.9157 2.3046 24.7564 1.92411C24.5971 1.54361 24.3642 1.19831 24.0712 0.907989C23.7782 0.617669 23.4307 0.388044 23.0488 0.232281C22.6668 0.0765173 22.2579 -0.0023214 21.8454 0.000285079ZM4.52661 13.542H3.13911C2.96296 13.5433 2.78935 13.5 2.6345 13.416C2.47966 13.332 2.34864 13.2101 2.2537 13.0617C2.16043 12.9239 2.10342 12.7648 2.08794 12.5991C2.07246 12.4334 2.09902 12.2665 2.16515 12.1138C2.83635 10.8837 3.89082 9.90645 5.16828 9.33049C5.82832 8.99955 6.52517 8.7478 7.24432 8.58049C6.20894 10.16 5.3002 11.819 4.52661 13.542ZM15.6724 19.8315C15.0965 21.1087 14.1197 22.163 12.8902 22.8347C12.7373 22.9009 12.5702 22.9275 12.4043 22.912C12.2385 22.8965 12.0792 22.8395 11.9412 22.7461C11.7928 22.6512 11.6709 22.5202 11.587 22.3653C11.503 22.2105 11.4596 22.0369 11.461 21.8607V20.4732C13.1839 19.6996 14.8429 18.7909 16.4224 17.7555C16.2541 18.4748 16.0013 19.1716 15.6693 19.8315H15.6724ZM15.8131 15.644C14.4035 16.6231 12.9154 17.484 11.3641 18.218C11.1523 17.0806 10.601 16.0339 9.78293 15.2158C8.96483 14.3977 7.9182 13.8465 6.78078 13.6347C7.51535 12.0847 8.3766 10.5981 9.35578 9.18987C12.8641 4.29612 16.4995 2.23674 21.8745 2.08362C22.1458 2.08351 22.4064 2.18925 22.601 2.37833C22.7955 2.56742 22.9086 2.82494 22.9162 3.09612C22.7631 8.50029 20.7037 12.1357 15.8099 15.644H15.8131Z" fill="#565656"/>
</g>
<defs>
<clipPath id="clip0_120_20">
<rect width="25" height="25" fill="white"/>
</clipPath>
</defs>
</svg>
