<svg width="25" height="25" viewBox="0 0 25 25" fill="none" xmlns="http://www.w3.org/2000/svg">
<path d="M20.7802 5.76667L17.151 2.13542C15.7729 0.758333 13.9417 0 11.9948 0H7.29167C4.41979 0 2.08333 2.33646 2.08333 5.20833V11.4583C2.08333 12.0333 2.54896 12.5 3.125 12.5C3.70104 12.5 4.16667 12.0333 4.16667 11.4583V5.20833C4.16667 3.48542 5.56875 2.08333 7.29167 2.08333H11.9948C12.1646 2.08333 12.3333 2.09167 12.5 2.10729V7.29167C12.5 9.01458 13.9021 10.4167 15.625 10.4167H20.8094C20.825 10.5833 20.8333 10.7521 20.8333 10.9219V19.7917C20.8333 21.5146 19.4312 22.9167 17.7083 22.9167H7.29167C5.56875 22.9167 4.16667 21.5146 4.16667 19.7917C4.16667 19.2167 3.70104 18.75 3.125 18.75C2.54896 18.75 2.08333 19.2167 2.08333 19.7917C2.08333 22.6635 4.41979 25 7.29167 25H17.7083C20.5802 25 22.9167 22.6635 22.9167 19.7917V10.9219C22.9167 8.97292 22.1573 7.14375 20.7802 5.76667ZM15.625 8.33333C15.05 8.33333 14.5833 7.86562 14.5833 7.29167V2.76979C14.9792 2.99687 15.3469 3.27708 15.6781 3.60833L19.3073 7.23958C19.6385 7.56979 19.9187 7.9375 20.1458 8.33333H15.624H15.625ZM10.8312 16.6667H1.04167C0.465625 16.6667 0 16.2 0 15.625C0 15.05 0.465625 14.5833 1.04167 14.5833H10.8312L9.48437 13.2365C9.07708 12.8292 9.07708 12.1698 9.48437 11.7635C9.89167 11.3562 10.55 11.3562 10.9573 11.7635L12.6375 13.4448C13.8396 14.6469 13.8396 16.6031 12.6375 17.8062L10.9573 19.4875C10.7542 19.6906 10.4875 19.7927 10.2208 19.7927C9.95417 19.7927 9.6875 19.6906 9.48437 19.4875C9.07708 19.0812 9.07708 18.4219 9.48437 18.0146L10.8312 16.6667Z" fill="#565656"/>
</svg>
