<svg width="45" height="45" viewBox="0 0 45 45" fill="none" xmlns="http://www.w3.org/2000/svg">
<circle cx="22.5" cy="22.5" r="22.5" fill="white"/>
<g clip-path="url(#clip0_191_828)">
<path d="M26.6667 11.0416L26.6667 32.2072L26.651 32.1926L24.2708 29.8551C24.1747 29.7528 24.059 29.671 23.9305 29.6146C23.802 29.5582 23.6634 29.5283 23.5231 29.5268C23.3828 29.5252 23.2436 29.552 23.1139 29.6056C22.9842 29.6592 22.8666 29.7385 22.7683 29.8386C22.67 29.9387 22.5929 30.0577 22.5417 30.1884C22.4906 30.319 22.4663 30.4587 22.4704 30.599C22.4745 30.7392 22.507 30.8772 22.5658 31.0047C22.6245 31.1321 22.7085 31.2463 22.8125 31.3405L25.1844 33.6728C25.3542 33.8426 25.6146 34.0801 25.8885 34.3228C26.3814 34.7587 27.0166 34.9993 27.6745 34.9993C28.3324 34.9993 28.9676 34.7587 29.4604 34.3228C29.7333 34.0801 29.9937 33.8426 30.1583 33.6791L32.5375 31.3405C32.7217 31.1445 32.8229 30.8848 32.8199 30.6158C32.8169 30.3469 32.7101 30.0895 32.5216 29.8975C32.3332 29.7056 32.0778 29.594 31.8089 29.5861C31.5401 29.5782 31.2786 29.6746 31.0792 29.8551L28.75 32.1416L28.75 11.0416C28.75 10.7653 28.6402 10.5004 28.4449 10.305C28.2495 10.1097 27.9846 9.99991 27.7083 9.99991C27.4321 9.99991 27.1671 10.1097 26.9718 10.305C26.7764 10.5004 26.6667 10.7653 26.6667 11.0416Z" fill="#2F76DE"/>
<path d="M18.3333 33.9583L18.3333 12.8594L20.6593 15.1448C20.7554 15.2471 20.8712 15.3289 20.9997 15.3853C21.1281 15.4417 21.2667 15.4716 21.407 15.4732C21.5474 15.4747 21.6866 15.4479 21.8163 15.3943C21.946 15.3407 22.0635 15.2615 22.1618 15.1613C22.2601 15.0612 22.3372 14.9422 22.3884 14.8115C22.4396 14.6809 22.4638 14.5412 22.4597 14.4009C22.4556 14.2607 22.4232 14.1227 22.3644 13.9952C22.3056 13.8678 22.2217 13.7536 22.1176 13.6594L19.7437 11.3271C19.5739 11.1573 19.3135 10.9198 19.0406 10.6771C18.5477 10.2412 17.9125 10.0006 17.2546 10.0006C16.5967 10.0006 15.9615 10.2412 15.4687 10.6771C15.1947 10.9198 14.9343 11.1573 14.7708 11.3208L12.3958 13.6594C12.2116 13.8554 12.1104 14.1151 12.1133 14.3841C12.1163 14.653 12.2232 14.9104 12.4116 15.1024C12.6001 15.2943 12.8555 15.4059 13.1243 15.4138C13.3932 15.4217 13.6547 15.3253 13.8541 15.1448L16.2395 12.8L16.2499 12.7917L16.2499 33.9583C16.2499 34.2346 16.3597 34.4996 16.555 34.6949C16.7504 34.8903 17.0153 35 17.2916 35C17.5679 35 17.8328 34.8903 18.0282 34.6949C18.2235 34.4996 18.3333 34.2346 18.3333 33.9583Z" fill="#2F76DE"/>
</g>
<defs>
<clipPath id="clip0_191_828">
<rect width="25" height="25" fill="white" transform="matrix(0 -1 1 0 10 35)"/>
</clipPath>
</defs>
</svg>
