<svg width="25" height="25" viewBox="0 0 25 25" fill="none" xmlns="http://www.w3.org/2000/svg">
<g clip-path="url(#clip0_120_48)">
<path d="M1.5042 6.94685C1.1554 7.04651 0.838674 7.23552 0.585353 7.49517C0.332032 7.75482 0.150899 8.07612 0.0598765 8.42726C-0.0311463 8.77841 -0.0289037 9.14724 0.0663824 9.49726C0.161668 9.84727 0.346695 10.1663 0.603155 10.4229L4.15732 13.9729V20.8333H11.025L14.6032 24.4062C14.7952 24.5999 15.0236 24.7538 15.2754 24.8589C15.5271 24.964 15.7971 25.0183 16.0698 25.0187C16.2491 25.0184 16.4276 24.9953 16.6011 24.95C16.9521 24.8616 17.2736 24.6823 17.5333 24.4301C17.7929 24.1779 17.9816 23.8618 18.0802 23.5135L24.9907 0.0218506L1.5042 6.94685ZM2.08336 8.94998L19.8209 3.72081L6.24274 17.2771V13.1104L2.08336 8.94998ZM16.0834 22.9333L11.8886 18.75H7.72191L21.2979 5.18539L16.0834 22.9333Z" fill="#565656"/>
</g>
<defs>
<clipPath id="clip0_120_48">
<rect width="25" height="25" fill="white"/>
</clipPath>
</defs>
</svg>
