<svg width="25" height="25" viewBox="0 0 25 25" fill="none" xmlns="http://www.w3.org/2000/svg">
<g clip-path="url(#clip0_120_33)">
<path d="M12.5 2.08342C13.8818 2.08796 15.249 2.36649 16.5224 2.90289C17.7958 3.43929 18.9502 4.22292 19.9188 5.20842H15.625V7.29176H20.9823C21.4952 7.29121 21.9869 7.08723 22.3495 6.72458C22.7122 6.36194 22.9161 5.87024 22.9167 5.35738V9.12275e-05H20.8333V3.20634C19.039 1.59057 16.8146 0.529941 14.4296 0.153017C12.0446 -0.223907 9.6015 0.0990568 7.39638 1.08276C5.19126 2.06647 3.31881 3.66868 2.006 5.69519C0.693186 7.7217 -0.00362934 10.0855 1.42159e-05 12.5001H2.08335C2.08638 9.73835 3.18482 7.09059 5.13767 5.13775C7.09052 3.1849 9.73827 2.08646 12.5 2.08342Z" fill="#565656"/>
<path d="M22.9166 12.5C22.9196 14.5681 22.3061 16.5901 21.1545 18.3078C20.0028 20.0255 18.3653 21.361 16.451 22.1436C14.5367 22.9262 12.4326 23.1204 10.4074 22.7015C8.38226 22.2826 6.52791 21.2695 5.08123 19.7917H9.37498V17.7083H4.01769C3.50483 17.7089 3.01313 17.9129 2.65049 18.2755C2.28784 18.6382 2.08386 19.1299 2.08331 19.6427V25H4.16665V21.7938C5.96095 23.4095 8.1854 24.4702 10.5704 24.8471C12.9554 25.224 15.3985 24.901 17.6036 23.9173C19.8087 22.9336 21.6812 21.3314 22.994 19.3049C24.3068 17.2784 25.0036 14.9146 25 12.5H22.9166Z" fill="#565656"/>
</g>
<defs>
<clipPath id="clip0_120_33">
<rect width="25" height="25" fill="white"/>
</clipPath>
</defs>
</svg>
