<svg width="25" height="25" viewBox="0 0 25 25" fill="none" xmlns="http://www.w3.org/2000/svg">
<g clip-path="url(#clip0_120_39)">
<path d="M24.3969 17.2739L20.9687 13.8458C20.8732 13.7441 20.7582 13.6626 20.6305 13.6061C20.5028 13.5497 20.3651 13.5195 20.2256 13.5173C20.086 13.5152 19.9474 13.5411 19.8181 13.5935C19.6887 13.6459 19.5712 13.7238 19.4726 13.8226C19.3739 13.9213 19.2961 14.0389 19.2437 14.1682C19.1914 14.2976 19.1656 14.4362 19.1679 14.5758C19.1701 14.7154 19.2004 14.853 19.2569 14.9807C19.3135 15.1083 19.395 15.2232 19.4969 15.3187L21.8823 17.7083C20.5855 17.7113 19.3013 17.4547 18.1052 16.9538C16.9091 16.4529 15.8253 15.7178 14.9177 14.7916C14.8169 14.6988 14.6985 14.6272 14.5695 14.581C14.4405 14.5348 14.3035 14.515 14.1667 14.5228C14.0299 14.5306 13.8961 14.5658 13.7731 14.6263C13.6502 14.6868 13.5407 14.7713 13.451 14.875L13.4375 14.8958C13.2624 15.0995 13.1727 15.363 13.1873 15.6313C13.2018 15.8996 13.3195 16.1518 13.5156 16.3354C14.6091 17.4413 15.9132 18.3169 17.3507 18.9106C18.7883 19.5042 20.3302 19.8038 21.8854 19.7916L19.4969 22.1802C19.388 22.2738 19.2997 22.3889 19.2375 22.5183C19.1752 22.6476 19.1404 22.7885 19.1351 22.9319C19.1299 23.0754 19.1544 23.2184 19.207 23.352C19.2597 23.4855 19.3394 23.6067 19.4411 23.708C19.5428 23.8093 19.6644 23.8885 19.7982 23.9406C19.932 23.9927 20.0751 24.0166 20.2185 24.0107C20.362 24.0049 20.5027 23.9694 20.6318 23.9066C20.7609 23.8438 20.8756 23.755 20.9687 23.6458L24.3969 20.2177C24.7868 19.8271 25.0058 19.2977 25.0058 18.7458C25.0058 18.1939 24.7868 17.6645 24.3969 17.2739Z" fill="#565656"/>
<path d="M21.8823 7.29168L19.4968 9.6771C19.4765 9.70452 19.4578 9.73303 19.4406 9.76252C19.2725 9.96747 19.1896 10.2292 19.209 10.4935C19.2284 10.7579 19.3487 11.0047 19.5449 11.1828C19.7412 11.361 19.9984 11.457 20.2634 11.4509C20.5284 11.4448 20.7809 11.3371 20.9687 11.15L22.7458 9.37502L24.3979 7.72397C24.6772 7.44247 24.8704 7.08709 24.9547 6.6996C25.039 6.31211 25.011 5.90859 24.8739 5.53647C24.7727 5.25163 24.6098 4.99267 24.3968 4.77814L20.9687 1.35418C20.8736 1.25086 20.7586 1.16783 20.6306 1.11009C20.5026 1.05234 20.3643 1.02108 20.2239 1.01817C20.0835 1.01526 19.9439 1.04077 19.8136 1.09316C19.6834 1.14555 19.565 1.22375 19.4657 1.32304C19.3664 1.42234 19.2882 1.54069 19.2358 1.67097C19.1834 1.80126 19.1579 1.94079 19.1608 2.08119C19.1637 2.22158 19.195 2.35994 19.2528 2.48795C19.3105 2.61595 19.3935 2.73096 19.4968 2.82606L21.8854 5.21356C16.7468 5.22606 13.9302 7.99897 11.376 10.9156C9.03018 8.26772 6.24998 5.62502 1.54893 5.25627L1.04789 5.20835C0.771625 5.20835 0.506673 5.3181 0.311323 5.51345C0.115972 5.7088 0.00622559 5.97375 0.00622559 6.25002C0.0115591 6.52461 0.123018 6.78648 0.317224 6.98068C0.511431 7.17489 0.773295 7.28635 1.04789 7.29168C1.12289 7.29168 1.34685 7.32606 1.34685 7.32606C5.40518 7.63335 7.73435 9.91877 9.99998 12.5C7.74789 15.0688 5.43435 17.3958 1.40935 17.6667L0.992684 17.6886C0.718489 17.7057 0.462328 17.831 0.280555 18.037C0.0987811 18.243 0.00628452 18.5128 0.0234131 18.787C0.0405417 19.0612 0.165892 19.3174 0.371889 19.4991C0.577886 19.6809 0.847655 19.7734 1.12185 19.7563C1.28435 19.749 1.54893 19.7427 1.67914 19.7323C6.90831 19.3292 9.74477 15.9823 12.2739 13.0563C14.8281 10.1042 17.2406 7.31043 21.8823 7.29168Z" fill="#565656"/>
</g>
<defs>
<clipPath id="clip0_120_39">
<rect width="25" height="25" fill="white"/>
</clipPath>
</defs>
</svg>
