<svg width="20" height="20" viewBox="0 0 20 20" fill="none" xmlns="http://www.w3.org/2000/svg">
<g clip-path="url(#clip0_191_535)">
<path d="M17.5 5.00008H4.16667C3.45083 5.00008 2.77333 4.69008 2.30417 4.16758C2.7625 3.65591 3.42833 3.33341 4.16667 3.33341H19.1667C19.6275 3.33341 20 2.96008 20 2.50008C20 2.04008 19.6275 1.66675 19.1667 1.66675H4.16667C1.86583 1.66675 0 3.53258 0 5.83341V14.1667C0 16.4676 1.86583 18.3334 4.16667 18.3334H17.5C18.8808 18.3334 20 17.2142 20 15.8334V7.50008C20 6.11925 18.8808 5.00008 17.5 5.00008ZM18.3333 15.8334C18.3333 16.2926 17.96 16.6667 17.5 16.6667H4.16667C2.78833 16.6667 1.66667 15.5451 1.66667 14.1667V5.83175C2.37833 6.36425 3.25333 6.66675 4.16667 6.66675H17.5C17.96 6.66675 18.3333 7.04091 18.3333 7.50008V15.8334ZM16.6667 11.6667C16.6667 12.1267 16.2933 12.5001 15.8333 12.5001C15.3733 12.5001 15 12.1267 15 11.6667C15 11.2067 15.3733 10.8334 15.8333 10.8334C16.2933 10.8334 16.6667 11.2067 16.6667 11.6667Z" fill="#909090"/>
</g>
<defs>
<clipPath id="clip0_191_535">
<rect width="20" height="20" fill="white"/>
</clipPath>
</defs>
</svg>
