<svg width="39" height="39" viewBox="0 0 39 39" fill="none" xmlns="http://www.w3.org/2000/svg">
<g id="arrow-small-right 1">
<path id="Vector" d="M29.25 19.4999C29.2421 18.645 28.8976 17.8276 28.2913 17.2249L21.32 10.2374C21.0155 9.93477 20.6037 9.76489 20.1744 9.76489C19.7451 9.76489 19.3332 9.93477 19.0288 10.2374C18.8764 10.3885 18.7556 10.5682 18.6731 10.7662C18.5906 10.9643 18.5481 11.1767 18.5481 11.3912C18.5481 11.6057 18.5906 11.8181 18.6731 12.0161C18.7556 12.2141 18.8764 12.3939 19.0288 12.5449L24.375 17.8749H8.125C7.69402 17.8749 7.2807 18.0461 6.97595 18.3509C6.67121 18.6556 6.5 19.069 6.5 19.4999C6.5 19.9309 6.67121 20.3442 6.97595 20.649C7.2807 20.9537 7.69402 21.1249 8.125 21.1249H24.375L19.0288 26.4712C18.7228 26.775 18.55 27.188 18.5485 27.6192C18.5469 28.0504 18.7168 28.4646 19.0206 28.7706C19.3245 29.0766 19.7374 29.2493 20.1686 29.2508C20.5998 29.2524 21.014 29.0825 21.32 28.7787L28.2913 21.7912C28.9016 21.1845 29.2464 20.3605 29.25 19.4999Z" fill="#2F76DE"/>
</g>
</svg>
