<svg width="30" height="30" viewBox="0 0 30 30" fill="none" xmlns="http://www.w3.org/2000/svg">
<g id="6843064_effective_efficacy_efficiency_efficient_high_icon 1">
<g id="High_efficacy">
<path id="Vector" d="M28.8479 22.9986L25.3814 19.8281C25.2728 19.7287 25.1309 19.6736 24.9836 19.6736C24.8364 19.6736 24.6945 19.7287 24.5858 19.8281L21.1193 22.9989C21.0183 23.0912 20.9476 23.212 20.9165 23.3452C20.8853 23.4785 20.8951 23.6181 20.9447 23.7457C20.9942 23.8733 21.0812 23.9829 21.1941 24.0602C21.307 24.1375 21.4407 24.1788 21.5776 24.1789H22.5735C22.6415 24.1788 22.7088 24.1922 22.7716 24.2182C22.8344 24.2443 22.8915 24.2824 22.9395 24.3305C22.9876 24.3785 23.0257 24.4356 23.0518 24.4984C23.0778 24.5612 23.0912 24.6285 23.0912 24.6965V28.3885C23.0912 28.5224 23.1444 28.6509 23.2391 28.7456C23.3338 28.8403 23.4623 28.8935 23.5962 28.8935H26.2865C26.4204 28.8935 26.5489 28.8403 26.6436 28.7456C26.7383 28.6509 26.7915 28.5224 26.7915 28.3885V24.6963C26.7915 24.6283 26.8049 24.5609 26.8309 24.4981C26.857 24.4353 26.8951 24.3782 26.9432 24.3302C26.9913 24.2821 27.0484 24.244 27.1112 24.218C27.174 24.192 27.2414 24.1786 27.3094 24.1786H28.3899C28.5268 24.1786 28.6604 24.1372 28.7733 24.0599C28.8862 23.9826 28.9732 23.8729 29.0227 23.7453C29.0722 23.6178 29.082 23.4782 29.0508 23.3449C29.0196 23.2117 28.9489 23.091 28.8479 22.9986Z" fill="#2F77E0"/>
<path id="Vector_2" d="M21.0625 18.4611L19.8636 16.709C19.7737 16.5798 19.7192 16.4294 19.7056 16.2726C19.692 16.1159 19.7197 15.9583 19.7859 15.8156C19.9119 15.5496 20.0242 15.2774 20.1222 14.9999C20.1765 14.8521 20.2685 14.721 20.3892 14.6198C20.5098 14.5185 20.6548 14.4505 20.8098 14.4227L22.8967 14.0313C23.1198 13.9895 23.3212 13.871 23.4662 13.6964C23.6111 13.5218 23.6905 13.302 23.6905 13.075V11.2739C23.6904 11.0471 23.611 10.8274 23.4661 10.6528C23.3211 10.4783 23.1197 10.3599 22.8967 10.3182L20.8098 9.92652C20.6548 9.89875 20.5097 9.83084 20.3891 9.72957C20.2684 9.6283 20.1765 9.49719 20.1222 9.34931C20.0242 9.07163 19.9117 8.79926 19.7853 8.53331C19.7193 8.39046 19.6918 8.23281 19.7056 8.07605C19.7194 7.91928 19.7741 7.76887 19.8641 7.63977L21.0625 5.88815C21.1905 5.70088 21.249 5.47476 21.228 5.24889C21.2069 5.02302 21.1076 4.81162 20.9471 4.65126L19.6734 3.37752C19.5129 3.21733 19.3016 3.11818 19.0758 3.09717C18.8501 3.07616 18.624 3.13461 18.4368 3.26245L16.6849 4.46104C16.5558 4.55096 16.4053 4.6055 16.2485 4.61924C16.0918 4.63297 15.9341 4.60542 15.7913 4.53932C15.5253 4.41294 15.2528 4.30042 14.9751 4.2022C14.8273 4.14797 14.6962 4.05597 14.5949 3.93534C14.4936 3.81471 14.4257 3.66966 14.3979 3.51463L14.0065 1.42748C13.9646 1.20458 13.8462 1.00332 13.6717 0.858504C13.4971 0.713686 13.2775 0.634415 13.0507 0.634399H11.2494C11.0226 0.634448 10.803 0.713734 10.6285 0.858549C10.454 1.00336 10.3356 1.20461 10.2937 1.42748L9.90232 3.51463C9.87448 3.66974 9.8065 3.81485 9.70515 3.93552C9.6038 4.05619 9.47261 4.14822 9.32464 4.20243C9.04708 4.30053 8.77483 4.41306 8.50901 4.53956C8.36615 4.60552 8.20853 4.63298 8.05178 4.61921C7.89503 4.60543 7.7446 4.55091 7.61543 4.46104L5.86334 3.26245C5.67606 3.13455 5.45001 3.07606 5.2242 3.09707C4.99839 3.11808 4.78701 3.21727 4.62654 3.37752L3.353 4.65126C3.19265 4.81169 3.0934 5.02311 3.07241 5.24897C3.05142 5.47483 3.11002 5.70092 3.23806 5.88815L4.43651 7.64024C4.5263 7.7693 4.5808 7.91958 4.59461 8.07618C4.60843 8.23279 4.58107 8.39029 4.51526 8.53307C4.38837 8.79904 4.27571 9.07156 4.17776 9.34949C4.12362 9.4974 4.03163 9.62852 3.91099 9.72977C3.79034 9.83102 3.64525 9.89886 3.4902 9.92652L1.40328 10.3182C1.18029 10.3599 0.9789 10.4783 0.833952 10.6528C0.689005 10.8274 0.609609 11.0471 0.609497 11.2739V13.075C0.609518 13.302 0.68887 13.5218 0.833824 13.6964C0.978778 13.871 1.18021 13.9895 1.40328 14.0313L3.48978 14.4227C3.64488 14.4504 3.79002 14.5182 3.91073 14.6194C4.03144 14.7207 4.12351 14.8518 4.17776 14.9997C4.27567 15.2776 4.38833 15.55 4.51526 15.8159C4.58112 15.9588 4.60846 16.1165 4.59456 16.2732C4.58066 16.4299 4.52602 16.5803 4.43604 16.7094L3.23853 18.4608C3.1103 18.648 3.05156 18.8741 3.07246 19.1C3.09336 19.326 3.1926 19.5375 3.353 19.6979L4.62654 20.9714C4.7869 21.1319 4.99831 21.2313 5.22418 21.2523C5.45006 21.2733 5.67618 21.2147 5.86339 21.0866L7.61525 19.8882C7.74439 19.7982 7.89483 19.7437 8.0516 19.7299C8.20838 19.7162 8.36601 19.7438 8.50883 19.8099C8.77482 19.9363 9.04726 20.0488 9.32501 20.1468C9.47288 20.2011 9.60396 20.2931 9.70522 20.4138C9.80648 20.5345 9.8744 20.6795 9.90223 20.8346L10.2937 22.9218C10.3356 23.1447 10.454 23.346 10.6286 23.4908C10.8031 23.6356 11.0228 23.7149 11.2496 23.7149H13.0508C13.2776 23.7149 13.4972 23.6356 13.6717 23.4907C13.8462 23.3459 13.9647 23.1447 14.0065 22.9218L14.3979 20.8347C14.4257 20.6796 14.4937 20.5345 14.5949 20.4139C14.6962 20.2932 14.8273 20.2011 14.9751 20.1468C15.2529 20.0488 15.5254 19.9363 15.7913 19.8097C15.9342 19.7439 16.0918 19.7166 16.2485 19.7303C16.4052 19.7441 16.5557 19.7985 16.6849 19.8882L18.4368 21.0866C18.624 21.2147 18.8501 21.2733 19.076 21.2523C19.3018 21.2313 19.5133 21.132 19.6736 20.9715L20.9471 19.698C21.1076 19.5376 21.2069 19.3262 21.228 19.1003C21.2491 18.8745 21.1905 18.6483 21.0625 18.4611ZM12.15 16.365C11.3211 16.3651 10.5109 16.1193 9.8217 15.6589C9.13252 15.1985 8.59534 14.544 8.27811 13.7783C7.96089 13.0125 7.87785 12.1699 8.03951 11.357C8.20117 10.5441 8.60026 9.79737 9.18632 9.21126C9.77237 8.62516 10.5191 8.22601 11.332 8.06429C12.1449 7.90257 12.9875 7.98553 13.7533 8.3027C14.519 8.61987 15.1735 9.157 15.634 9.84615C16.0945 10.5353 16.3403 11.3455 16.3403 12.1744C16.3403 13.2857 15.8988 14.3516 15.113 15.1375C14.3272 15.9234 13.2613 16.3649 12.15 16.365Z" fill="#2F77E0"/>
</g>
</g>
</svg>
