<svg width="96" height="96" viewBox="0 0 96 96" fill="none" xmlns="http://www.w3.org/2000/svg">
<g id="1622832_documents_email_envelope_feed_letter_icon 1">
<path id="Vector" d="M81.825 35.025L49.95 10.5C48.675 9.52505 46.8 9.52505 45.525 10.5L13.575 35.025C12.675 35.7 12.15 36.75 12.15 37.95V82.65C12.15 84.675 13.8 86.325 15.825 86.325H79.575C81.6 86.325 83.25 84.675 83.25 82.65V37.95C83.25 36.825 82.725 35.7 81.825 35.025Z" fill="#2F76DE"/>
<path id="Vector_2" opacity="0.2" d="M13.05 41.55L56.55 72" stroke="white" stroke-width="8" stroke-miterlimit="10" stroke-linecap="round" stroke-linejoin="round"/>
<path id="Vector_3" d="M81.825 35.025L49.95 10.5C48.675 9.52505 46.8 9.52505 45.525 10.5L13.575 35.025C12.675 35.7 12.15 36.75 12.15 37.95V82.65C12.15 84.675 13.8 86.325 15.825 86.325H79.575C81.6 86.325 83.25 84.675 83.25 82.65V37.95C83.25 36.825 82.725 35.7 81.825 35.025Z" stroke="#242C88" stroke-width="2" stroke-miterlimit="10" stroke-linecap="round" stroke-linejoin="round"/>
<path id="Vector_4" opacity="0.2" d="M47.7 61.2L82.95 36.45C82.725 35.925 82.35 35.4 81.825 35.025L49.95 10.5C48.675 9.52505 46.8 9.52505 45.525 10.5L13.575 35.025C13.05 35.4 12.675 35.925 12.45 36.525L47.7 61.2Z" fill="#242C88"/>
<g id="Group">
<g id="Clip path group">
<mask id="mask0_26_281" style="mask-type:luminance" maskUnits="userSpaceOnUse" x="12" y="9" width="72" height="53">
<g id="SVGID_2_">
<path id="Vector_5" d="M47.7 61.2L82.95 36.45C82.725 35.925 82.35 35.4 81.825 35.025L83.25 9.75005C81.975 8.77505 14.775 8.77505 13.5 9.75005L13.575 35.025C13.05 35.4 12.675 35.925 12.45 36.525L47.7 61.2Z" fill="white"/>
</g>
</mask>
<g mask="url(#mask0_26_281)">
<path id="Vector_6" d="M70.5 15H16.5V51.75H70.5V15Z" fill="white"/>
</g>
</g>
<g id="Clip path group_2">
<mask id="mask1_26_281" style="mask-type:luminance" maskUnits="userSpaceOnUse" x="12" y="9" width="72" height="53">
<g id="SVGID_2__2">
<path id="Vector_7" d="M47.7 61.2L82.95 36.45C82.725 35.925 82.35 35.4 81.825 35.025L83.25 9.75005C81.975 8.77505 14.775 8.77505 13.5 9.75005L13.575 35.025C13.05 35.4 12.675 35.925 12.45 36.525L47.7 61.2Z" fill="white"/>
</g>
</mask>
<g mask="url(#mask1_26_281)">
<path id="Vector_8" d="M70.5 15H16.5V51.75H70.5V15Z" stroke="#242C88" stroke-width="2" stroke-miterlimit="10" stroke-linecap="round" stroke-linejoin="round"/>
</g>
</g>
<g id="Clip path group_3">
<mask id="mask2_26_281" style="mask-type:luminance" maskUnits="userSpaceOnUse" x="12" y="9" width="72" height="53">
<g id="SVGID_2__3">
<path id="Vector_9" d="M47.7 61.2L82.95 36.45C82.725 35.925 82.35 35.4 81.825 35.025L83.25 9.75005C81.975 8.77505 14.775 8.77505 13.5 9.75005L13.575 35.025C13.05 35.4 12.675 35.925 12.45 36.525L47.7 61.2Z" fill="white"/>
</g>
</mask>
<g mask="url(#mask2_26_281)">
<path id="Vector_10" opacity="0.2" d="M70.5 51.75V18.75H23.25C22.425 18.75 21.75 19.425 21.75 20.25V51.75H70.5Z" fill="#242C88"/>
</g>
</g>
<g id="Clip path group_4">
<mask id="mask3_26_281" style="mask-type:luminance" maskUnits="userSpaceOnUse" x="12" y="9" width="72" height="53">
<g id="SVGID_2__4">
<path id="Vector_11" d="M47.7 61.2L82.95 36.45C82.725 35.925 82.35 35.4 81.825 35.025L83.25 9.75005C81.975 8.77505 14.775 8.77505 13.5 9.75005L13.575 35.025C13.05 35.4 12.675 35.925 12.45 36.525L47.7 61.2Z" fill="white"/>
</g>
</mask>
<g mask="url(#mask3_26_281)">
<path id="Vector_12" d="M79.5 22.5H25.5V66H79.5V22.5Z" fill="white"/>
</g>
</g>
<g id="Clip path group_5">
<mask id="mask4_26_281" style="mask-type:luminance" maskUnits="userSpaceOnUse" x="12" y="9" width="72" height="53">
<g id="SVGID_2__5">
<path id="Vector_13" d="M47.7 61.2L82.95 36.45C82.725 35.925 82.35 35.4 81.825 35.025L83.25 9.75005C81.975 8.77505 14.775 8.77505 13.5 9.75005L13.575 35.025C13.05 35.4 12.675 35.925 12.45 36.525L47.7 61.2Z" fill="white"/>
</g>
</mask>
<g mask="url(#mask4_26_281)">
<path id="Vector_14" d="M79.5 22.5H25.5V66H79.5V22.5Z" stroke="#242C88" stroke-width="2" stroke-miterlimit="10" stroke-linecap="round" stroke-linejoin="round"/>
</g>
</g>
<g id="Clip path group_6">
<mask id="mask5_26_281" style="mask-type:luminance" maskUnits="userSpaceOnUse" x="12" y="9" width="72" height="53">
<g id="SVGID_2__6">
<path id="Vector_15" d="M47.7 61.2L82.95 36.45C82.725 35.925 82.35 35.4 81.825 35.025L83.25 9.75005C81.975 8.77505 14.775 8.77505 13.5 9.75005L13.575 35.025C13.05 35.4 12.675 35.925 12.45 36.525L47.7 61.2Z" fill="white"/>
</g>
</mask>
<g mask="url(#mask5_26_281)">
<path id="Vector_16" opacity="0.2" d="M36.75 39.75H68.25" stroke="#242C88" stroke-width="2" stroke-miterlimit="10" stroke-linecap="round" stroke-linejoin="round"/>
</g>
</g>
<g id="Clip path group_7">
<mask id="mask6_26_281" style="mask-type:luminance" maskUnits="userSpaceOnUse" x="12" y="9" width="72" height="53">
<g id="SVGID_2__7">
<path id="Vector_17" d="M47.7 61.2L82.95 36.45C82.725 35.925 82.35 35.4 81.825 35.025L83.25 9.75005C81.975 8.77505 14.775 8.77505 13.5 9.75005L13.575 35.025C13.05 35.4 12.675 35.925 12.45 36.525L47.7 61.2Z" fill="white"/>
</g>
</mask>
<g mask="url(#mask6_26_281)">
<path id="Vector_18" opacity="0.2" d="M36.75 35.25H68.25" stroke="#242C88" stroke-width="2" stroke-miterlimit="10" stroke-linecap="round" stroke-linejoin="round"/>
</g>
</g>
<g id="Clip path group_8">
<mask id="mask7_26_281" style="mask-type:luminance" maskUnits="userSpaceOnUse" x="12" y="9" width="72" height="53">
<g id="SVGID_2__8">
<path id="Vector_19" d="M47.7 61.2L82.95 36.45C82.725 35.925 82.35 35.4 81.825 35.025L83.25 9.75005C81.975 8.77505 14.775 8.77505 13.5 9.75005L13.575 35.025C13.05 35.4 12.675 35.925 12.45 36.525L47.7 61.2Z" fill="white"/>
</g>
</mask>
<g mask="url(#mask7_26_281)">
<path id="Vector_20" opacity="0.2" d="M36.75 48.75H68.25" stroke="#242C88" stroke-width="2" stroke-miterlimit="10" stroke-linecap="round" stroke-linejoin="round"/>
</g>
</g>
<g id="Clip path group_9">
<mask id="mask8_26_281" style="mask-type:luminance" maskUnits="userSpaceOnUse" x="12" y="9" width="72" height="53">
<g id="SVGID_2__9">
<path id="Vector_21" d="M47.7 61.2L82.95 36.45C82.725 35.925 82.35 35.4 81.825 35.025L83.25 9.75005C81.975 8.77505 14.775 8.77505 13.5 9.75005L13.575 35.025C13.05 35.4 12.675 35.925 12.45 36.525L47.7 61.2Z" fill="white"/>
</g>
</mask>
<g mask="url(#mask8_26_281)">
<path id="Vector_22" opacity="0.2" d="M36.75 53.25H52.5" stroke="#242C88" stroke-width="2" stroke-miterlimit="10" stroke-linecap="round" stroke-linejoin="round"/>
</g>
</g>
<g id="Clip path group_10">
<mask id="mask9_26_281" style="mask-type:luminance" maskUnits="userSpaceOnUse" x="12" y="9" width="72" height="53">
<g id="SVGID_2__10">
<path id="Vector_23" d="M47.7 61.2L82.95 36.45C82.725 35.925 82.35 35.4 81.825 35.025L83.25 9.75005C81.975 8.77505 14.775 8.77505 13.5 9.75005L13.575 35.025C13.05 35.4 12.675 35.925 12.45 36.525L47.7 61.2Z" fill="white"/>
</g>
</mask>
<g mask="url(#mask9_26_281)">
<path id="Vector_24" opacity="0.2" d="M36.75 44.25H68.25" stroke="#242C88" stroke-width="2" stroke-miterlimit="10" stroke-linecap="round" stroke-linejoin="round"/>
</g>
</g>
</g>
<path id="Vector_25" d="M13.05 37.05L58.65 68.925" stroke="#242C88" stroke-width="2" stroke-miterlimit="10" stroke-linecap="round" stroke-linejoin="round"/>
<path id="Vector_26" d="M82.35 37.05L47.7 61.2" stroke="#242C88" stroke-width="2" stroke-miterlimit="10" stroke-linecap="round" stroke-linejoin="round"/>
</g>
</svg>
