<svg width="36" height="36" viewBox="0 0 36 36" fill="none" xmlns="http://www.w3.org/2000/svg">
<g id="hand-back-point-right 1" clip-path="url(#clip0_1712_30)">
<path id="Vector" d="M14.5815 33H7.5C3.3645 33 0 29.6355 0 25.5V15.0465C0 11.841 1.248 8.8275 3.5145 6.561L6.9765 3.099C8.0085 2.067 9.378 1.5 10.836 1.5H10.845C12.3075 1.5015 13.6785 2.0745 14.709 3.1125L20.5875 9.03L31.494 9C32.82 9 34.0695 9.5775 34.9275 10.5855C35.784 11.592 36.153 12.927 35.9385 14.244C35.5905 16.3845 33.612 17.9985 31.3395 17.9985H23.73L21.936 26.97C21.237 30.4635 18.144 33 14.5815 33ZM10.8375 4.5C10.1805 4.5 9.5625 4.755 9.099 5.22L5.637 8.682C3.9375 10.3815 3.0015 12.642 3.0015 15.0465V25.5C3.0015 27.981 5.0205 30 7.5015 30H14.583C16.7205 30 18.576 28.479 18.996 26.382L21.0315 16.2045C21.171 15.504 21.7875 14.9985 22.5015 14.9985H31.341C32.1465 14.9985 32.8665 14.4555 32.9805 13.761C33.054 13.3065 32.9355 12.8685 32.6445 12.5265C32.3595 12.1905 31.9425 11.997 31.5015 11.997L10.506 12.0555H10.5015C9.675 12.0555 9.003 11.3865 9.0015 10.56C9 9.732 9.669 9.0585 10.497 9.0555L16.3725 9.039L12.582 5.223C12.117 4.755 11.499 4.4985 10.8405 4.497H10.8375V4.5Z" fill="#3E3E3E"/>
</g>
<defs>
<clipPath id="clip0_1712_30">
<rect width="36" height="36" fill="white"/>
</clipPath>
</defs>
</svg>
