<svg width="40" height="40" viewBox="0 0 40 40" fill="none" xmlns="http://www.w3.org/2000/svg">
<g id="linkedin 1">
<path id="Vector" d="M37.1429 2.5H2.84821C1.27679 2.5 0 3.63281 0 5.02344V34.9766C0 36.3672 1.27679 37.5 2.84821 37.5H37.1429C38.7143 37.5 40 36.3672 40 34.9766V5.02344C40 3.63281 38.7143 2.5 37.1429 2.5ZM12.0893 32.5H6.16071V15.7969H12.0982V32.5H12.0893ZM9.125 13.5156C7.22321 13.5156 5.6875 12.1641 5.6875 10.5078C5.6875 8.85156 7.22321 7.5 9.125 7.5C11.0179 7.5 12.5625 8.85156 12.5625 10.5078C12.5625 12.1719 11.0268 13.5156 9.125 13.5156ZM34.3125 32.5H28.3839V24.375C28.3839 22.4375 28.3393 19.9453 25.3036 19.9453C22.2143 19.9453 21.7411 22.0547 21.7411 24.2344V32.5H15.8125V15.7969H21.5V18.0781H21.5804C22.375 16.7656 24.3125 15.3828 27.1964 15.3828C33.1964 15.3828 34.3125 18.8437 34.3125 23.3437V32.5Z" fill="#2F76DE"/>
</g>
</svg>
