<svg width="30" height="30" viewBox="0 0 30 30" fill="none" xmlns="http://www.w3.org/2000/svg">
<g id="9112844_balance_scale_left_solid_icon 1">
<path id="Vector" d="M22.0532 4.79004L17.1387 6.63391C16.6223 6.02261 15.8608 5.625 15 5.625C13.4494 5.625 12.1875 6.88687 12.1875 8.4375C12.1875 8.45756 12.1926 8.47613 12.193 8.49609L7.5 10.3125L2.8125 18.5156V18.7646C2.8125 21.3484 4.91531 23.4375 7.5 23.4375C10.0847 23.4375 12.1875 21.3484 12.1875 18.7646V18.5156L8.44666 11.9678L12.8668 10.2484C13.1842 10.6217 13.5922 10.9101 14.0625 11.0779V22.5V24.375H15.9375H19.6875V22.5H15.9375V11.0779C17.0262 10.6895 17.8125 9.65776 17.8125 8.4375C17.8125 8.41992 17.8073 8.40373 17.807 8.38623L21.7603 6.90308L17.8125 13.8135V14.0625C17.8125 16.6472 19.9153 18.75 22.5 18.75C25.0847 18.75 27.1875 16.6472 27.1875 14.0625V13.8135L22.9779 6.44714L22.0532 4.79004ZM15 7.5C15.5175 7.5 15.9375 7.92094 15.9375 8.4375C15.9375 8.95406 15.5175 9.375 15 9.375C14.4825 9.375 14.0625 8.95406 14.0625 8.4375C14.0625 7.92094 14.4825 7.5 15 7.5ZM22.5 9.38965L24.635 13.125H20.365L22.5 9.38965ZM7.5 14.0918L9.62585 17.8125H5.37415L7.5 14.0918ZM19.8615 15H25.1385C24.7502 16.089 23.7208 16.875 22.5 16.875C21.2792 16.875 20.2498 16.089 19.8615 15ZM4.85596 19.6875H10.144C9.75941 20.7834 8.7257 21.5771 7.5 21.5771C6.2743 21.5771 5.24059 20.7834 4.85596 19.6875Z" fill="#2F77E0"/>
</g>
</svg>
