<svg width="30" height="30" viewBox="0 0 30 30" fill="none" xmlns="http://www.w3.org/2000/svg">
<g id="7114161_responsive_technology_television_display_response_icon 1">
<g id="Responsive">
<path id="Vector" d="M7.48516 13.0803H6.13461C6.01029 13.0803 5.89106 13.1297 5.80316 13.2176C5.71525 13.3055 5.66586 13.4248 5.66586 13.5491C5.66586 13.6734 5.71525 13.7926 5.80316 13.8805C5.89106 13.9684 6.01029 14.0178 6.13461 14.0178H7.48516C7.60948 14.0178 7.72871 13.9684 7.81661 13.8805C7.90452 13.7926 7.95391 13.6734 7.95391 13.5491C7.95391 13.4248 7.90452 13.3055 7.81661 13.2176C7.72871 13.1297 7.60948 13.0803 7.48516 13.0803Z" fill="#2F77E0"/>
<path id="Vector_2" d="M25.3782 6.53023H10.4639V6.5283C10.4634 6.10201 10.2938 5.69331 9.99239 5.39188C9.69095 5.09044 9.28225 4.92089 8.85595 4.92041H4.76381C4.33751 4.92089 3.92881 5.09044 3.62737 5.39188C3.32593 5.69331 3.15637 6.10201 3.15588 6.5283V13.9937C3.15637 14.42 3.32593 14.8287 3.62737 15.1302C3.92881 15.4316 4.33751 15.6012 4.76381 15.6017H6.34115V19.5707C6.34159 19.9594 6.49618 20.332 6.771 20.6068C7.04582 20.8816 7.41843 21.0362 7.80709 21.0367H15.131C15.1458 21.5612 15.0993 22.0858 14.9924 22.5996C13.9885 22.9099 13.0954 23.5034 12.4204 24.3086C12.3628 24.3769 12.3259 24.4603 12.3141 24.5488C12.3023 24.6373 12.3161 24.7274 12.3537 24.8084C12.3914 24.8894 12.4514 24.9579 12.5267 25.006C12.602 25.054 12.6895 25.0795 12.7788 25.0795H20.4662C20.5555 25.0795 20.643 25.054 20.7183 25.006C20.7936 24.9579 20.8536 24.8894 20.8913 24.8084C20.9289 24.7274 20.9427 24.6373 20.9309 24.5488C20.919 24.4603 20.8822 24.3769 20.8246 24.3086C20.1318 23.4895 19.216 22.8892 18.1885 22.5807C18.0761 22.0739 18.0232 21.5557 18.0309 21.0366H25.3782C25.7668 21.0362 26.1394 20.8816 26.4142 20.6068C26.6891 20.332 26.8437 19.9594 26.8441 19.5707V7.99618C26.8437 7.60753 26.6891 7.23491 26.4143 6.96009C26.1394 6.68526 25.7668 6.53067 25.3782 6.53023ZM4.0934 6.5283C4.0936 6.35057 4.1643 6.18016 4.28998 6.05449C4.41567 5.92881 4.58607 5.85811 4.76381 5.85791H8.85595C9.0337 5.85811 9.2041 5.9288 9.32979 6.05448C9.45547 6.18016 9.52617 6.35056 9.52638 6.5283V10.0649C8.89645 10.0436 8.26583 10.0575 7.63744 10.1064C6.43709 10.1961 5.24933 10.4105 4.09338 10.7462L4.0934 6.5283ZM4.76381 14.6641C4.58606 14.6639 4.41565 14.5932 4.28997 14.4676C4.16428 14.3419 4.09358 14.1715 4.09338 13.9937V11.7299C4.31649 11.6541 6.60806 10.9052 9.52638 11.0053V13.9937C9.52618 14.1715 9.45548 14.3419 9.32979 14.4676C9.20411 14.5932 9.0337 14.6639 8.85595 14.6641H4.76381ZM23.0292 19.8973C22.9292 19.8973 22.8315 19.8677 22.7483 19.8121C22.6651 19.7565 22.6003 19.6776 22.5621 19.5852C22.5238 19.4928 22.5138 19.3911 22.5333 19.293C22.5528 19.1949 22.601 19.1048 22.6717 19.0341C22.7424 18.9634 22.8325 18.9152 22.9306 18.8957C23.0287 18.8762 23.1303 18.8862 23.2227 18.9245C23.3151 18.9628 23.3941 19.0276 23.4497 19.1107C23.5052 19.1939 23.5349 19.2917 23.5349 19.3917C23.5349 19.5258 23.4816 19.6544 23.3868 19.7492C23.292 19.8441 23.1633 19.8973 23.0292 19.8973ZM24.7721 19.8973C24.6721 19.8973 24.5744 19.8677 24.4912 19.8121C24.4081 19.7565 24.3432 19.6776 24.305 19.5852C24.2667 19.4928 24.2567 19.3911 24.2762 19.293C24.2957 19.1949 24.3439 19.1048 24.4146 19.0341C24.4853 18.9634 24.5754 18.9152 24.6735 18.8957C24.7716 18.8762 24.8733 18.8862 24.9657 18.9245C25.0581 18.9628 25.137 19.0276 25.1926 19.1107C25.2481 19.1939 25.2778 19.2917 25.2778 19.3917C25.2778 19.5258 25.2245 19.6544 25.1297 19.7492C25.0349 19.8441 24.9063 19.8973 24.7721 19.8973ZM25.9066 17.7551H7.27865V15.6016H8.85595C9.28225 15.6012 9.69095 15.4316 9.99239 15.1302C10.2938 14.8287 10.4634 14.42 10.4639 13.9937V11.0668C12.017 11.2179 13.6944 11.6332 15.3028 12.5178C17.598 13.7799 20.1371 14.5355 22.749 14.7337C23.2034 14.7669 23.6204 14.7798 23.9938 14.7797C24.6337 14.7847 25.2731 14.7419 25.9066 14.6516V17.7551ZM25.9066 13.7036C25.8882 13.7048 25.8699 13.7071 25.8518 13.7104C25.8397 13.7126 24.6277 13.9347 22.7826 13.7961C20.3173 13.6037 17.9213 12.8879 15.7546 11.6964C13.967 10.7132 12.1128 10.2777 10.4639 10.1244V7.46773H25.3782C25.5183 7.46789 25.6526 7.52362 25.7516 7.62269C25.8507 7.72176 25.9064 7.85608 25.9066 7.99618V13.7036Z" fill="#2F77E0"/>
</g>
</g>
</svg>
