<svg width="40" height="40" viewBox="0 0 40 40" fill="none" xmlns="http://www.w3.org/2000/svg">
<g id="youtube 1">
<path id="Vector" d="M38.1736 9.69531C37.7361 7.84375 36.4514 6.39063 34.8195 5.89844C31.8611 5 20 5 20 5C20 5 8.1389 5 5.18056 5.89844C3.54862 6.39063 2.2639 7.84375 1.8264 9.69531C1.03473 13.0469 1.03473 20.0312 1.03473 20.0312C1.03473 20.0312 1.03473 27.0156 1.8264 30.3672C2.2639 32.2188 3.54862 33.6094 5.18056 34.1016C8.1389 35 20 35 20 35C20 35 31.8611 35 34.8195 34.1016C36.4514 33.6094 37.7361 32.2109 38.1736 30.3672C38.9653 27.0156 38.9653 20.0312 38.9653 20.0312C38.9653 20.0312 38.9653 13.0469 38.1736 9.69531ZM16.125 26.375V13.6875L26.0347 20.0312L16.125 26.375Z" fill="#2F76DE"/>
</g>
</svg>
