<svg width="180" height="60" viewBox="0 0 180 60" fill="none" xmlns="http://www.w3.org/2000/svg">
<g id="akuna 2">
<path id="Vector" d="M9.47945 40.9966C8.74527 41.3202 7.93378 41.5001 7.04504 41.5001C5.88579 41.5001 4.88112 41.2122 3.95373 40.6369C3.02633 40.0614 2.29215 39.2701 1.75117 38.2989C1.21019 37.2919 0.939697 36.177 0.939697 34.9181C0.939696 33.6592 1.21019 32.6163 1.75117 31.6091C2.29215 30.638 3.06497 29.8468 3.99237 29.2713C4.9584 28.6958 6.00171 28.4441 7.1996 28.4441C9.01575 28.4441 10.3296 29.0555 11.2183 30.3144V28.8038H14.0391V41.1044H11.2183V39.5938C10.7933 40.1692 10.2136 40.6369 9.44081 40.9606L9.47945 40.9966ZM5.53802 31.3574C4.9584 31.7531 4.49471 32.2925 4.22422 32.94C3.91509 33.5874 3.79917 34.2707 3.79917 35.0259C3.79917 35.7813 3.95373 36.4287 4.22422 37.076C4.53335 37.7236 4.9584 38.2629 5.53802 38.6586C6.11765 39.0543 6.81319 39.2701 7.62466 39.2701C8.43614 39.2701 9.09303 39.0543 9.67265 38.6586C10.2523 38.2629 10.6773 37.7236 10.9865 37.076C11.2956 36.4287 11.4115 35.7093 11.4115 34.9901C11.4115 34.2707 11.257 33.5874 10.9865 32.94C10.6773 32.2925 10.2523 31.7889 9.67265 31.3934C9.09303 30.9977 8.39748 30.7819 7.58601 30.7819C6.77455 30.7819 6.07899 30.9977 5.49938 31.3934L5.53802 31.3574Z" fill="#242235"/>
<path id="Vector_2" d="M18.9446 41.1401V20.3873H21.7655V33.2993L26.3638 28.8034H30.0733L24.0453 34.2704L30.5758 41.1041H26.7889L21.8041 35.4933V41.1041H18.9833L18.9446 41.1401Z" fill="#242235"/>
<path id="Vector_3" d="M46.0718 35.9608C46.0718 37.1477 45.8398 38.1189 45.4149 38.9461C44.9511 39.7734 44.2942 40.3847 43.4442 40.8164C42.5941 41.2479 41.5508 41.4638 40.3529 41.4638C39.1549 41.4638 38.1503 41.2479 37.2616 40.8164C36.3728 40.3847 35.7545 39.7734 35.3295 38.9461C34.9044 38.1189 34.6726 37.1119 34.6726 35.9248V28.8035H37.4934V34.8819C37.4934 36.0688 37.6865 37.0759 38.0729 37.8671C38.4593 38.6583 39.2322 39.054 40.3529 39.054C41.3575 39.054 42.1303 38.7303 42.5941 38.0469C43.0577 37.3636 43.2896 36.3205 43.2896 34.8819V28.8035H46.1103V35.9248L46.0718 35.9608Z" fill="#242235"/>
<path id="Vector_4" d="M50.7861 28.8394H53.5684V30.422C54.1479 29.7387 54.7276 29.2711 55.2686 28.9833C55.8095 28.6956 56.5051 28.5518 57.3166 28.5518C58.7463 28.5518 59.8669 28.9833 60.6784 29.8105C61.4897 30.6737 61.9148 31.8248 61.9148 33.3353V41.1401H59.0941V34.0547C59.0941 33.0835 58.8622 32.3643 58.4371 31.8248C58.012 31.2852 57.3551 31.0334 56.5438 31.0334C55.655 31.0334 54.9208 31.3931 54.4184 32.0764C53.8774 32.7598 53.6069 33.695 53.6069 34.8459V41.1041H50.8248V28.8034L50.7861 28.8394Z" fill="#242235"/>
<path id="Vector_5" d="M74.8591 40.9966C74.1249 41.3202 73.3134 41.5001 72.4247 41.5001C71.2655 41.5001 70.2607 41.2122 69.3334 40.6369C68.406 40.0614 67.6717 39.2701 67.1309 38.2989C66.5898 37.2919 66.3193 36.177 66.3193 34.9181C66.3193 33.6592 66.5898 32.6163 67.1309 31.6091C67.6717 30.638 68.4445 29.8468 69.3719 29.2713C70.338 28.6958 71.3814 28.4441 72.5793 28.4441C74.3955 28.4441 75.7091 29.0555 76.5978 30.3144V28.8038H79.4188V41.1044H76.5978V39.5938C76.1729 40.1692 75.5932 40.6369 74.8204 40.9606L74.8591 40.9966ZM70.9176 31.3574C70.338 31.7531 69.8743 32.2925 69.6039 32.94C69.2947 33.5874 69.1788 34.2707 69.1788 35.0259C69.1788 35.7813 69.3334 36.4287 69.6039 37.076C69.9129 37.7236 70.338 38.2629 70.9176 38.6586C71.4973 39.0543 72.1927 39.2701 73.0042 39.2701C73.8157 39.2701 74.4727 39.0543 75.0522 38.6586C75.6319 38.2629 76.057 37.7236 76.366 37.076C76.6752 36.4287 76.7911 35.7093 76.7911 34.9901C76.7911 34.2707 76.6365 33.5874 76.366 32.94C76.057 32.2925 75.6319 31.7889 75.0522 31.3934C74.4727 30.9977 73.7771 30.7819 72.9657 30.7819C72.1542 30.7819 71.4586 30.9977 70.8791 31.3934L70.9176 31.3574Z" fill="#242235"/>
<path id="Vector_6" opacity="0.7" d="M88.5794 58.8V0.461792C88.5794 0.461792 68.5245 15.4599 87.4974 34.5942C106.277 53.5129 88.5794 58.8 88.5794 58.8Z" fill="#242235"/>
<g id="Group" opacity="0.9">
<path id="Vector_7" d="M102.254 41.5716C101.017 41.5716 99.8965 41.2838 98.8918 40.7442C97.887 40.2049 97.1142 39.4135 96.5732 38.4425C95.9936 37.4714 95.7231 36.3564 95.7231 35.1335C95.7231 34.1624 95.9163 33.2632 96.3028 32.436C96.6893 31.6088 97.2301 30.9254 97.9257 30.3139C98.6213 29.7025 99.3941 29.271 100.244 28.9471C101.133 28.6235 102.022 28.4796 102.949 28.4796C104.302 28.4796 105.577 28.8033 106.697 29.4508V32.5438C105.615 31.5009 104.34 30.9972 102.872 30.9972C101.713 30.9972 100.746 31.3569 99.935 32.0403C99.1236 32.7237 98.6985 33.6949 98.6985 34.9536C98.6985 35.7808 98.8531 36.5362 99.1622 37.1476C99.4714 37.7591 99.935 38.2266 100.553 38.5863C101.172 38.91 101.867 39.0538 102.679 39.0538C104.07 39.0538 105.383 38.5143 106.659 37.4354V40.5646C105.113 41.2479 103.645 41.6075 102.254 41.6075V41.5716Z" fill="#242235"/>
<path id="Vector_8" d="M118.482 40.9961C117.748 41.3198 116.936 41.4996 116.048 41.4996C114.888 41.4996 113.883 41.2118 112.956 40.6364C112.029 40.0609 111.294 39.2697 110.753 38.2986C110.213 37.2914 109.942 36.1765 109.942 34.9176C109.942 33.6589 110.213 32.6158 110.753 31.6088C111.294 30.6376 112.067 29.8463 112.995 29.2708C113.961 28.6954 115.004 28.4436 116.202 28.4436C118.018 28.4436 119.332 29.0551 120.221 30.3139V28.8033H123.041L123.042 41.1039H120.221V39.5933C119.796 40.1689 119.216 40.6364 118.443 40.9601L118.482 40.9961ZM114.54 31.3569C113.961 31.7526 113.497 32.2921 113.227 32.9395C112.918 33.5869 112.802 34.2702 112.802 35.0256C112.802 35.7808 112.956 36.4282 113.227 37.0757C113.536 37.7231 113.961 38.2626 114.54 38.6581C115.12 39.0538 115.816 39.2697 116.627 39.2697C117.439 39.2697 118.095 39.0538 118.675 38.6581C119.255 38.2626 119.68 37.7231 119.989 37.0757C120.298 36.4282 120.414 35.709 120.414 34.9896C120.414 34.2702 120.259 33.5869 119.989 32.9395C119.68 32.2921 119.255 31.7886 118.675 31.3929C118.095 30.9972 117.4 30.7816 116.588 30.7816C115.777 30.7816 115.081 30.9972 114.502 31.3929L114.54 31.3569Z" fill="#242235"/>
<path id="Vector_9" d="M127.213 47.0026V28.8393H130.034V30.3499C131 29.0911 132.352 28.4796 134.13 28.4796C135.444 28.4796 136.564 28.8033 137.492 29.4148C138.419 30.0262 139.153 30.8534 139.617 31.8605C140.081 32.8675 140.312 33.9466 140.312 35.0616C140.312 36.1765 140.081 37.2196 139.617 38.1906C139.153 39.1618 138.458 39.953 137.569 40.5644C136.642 41.1759 135.56 41.4636 134.246 41.4636C132.507 41.4636 131.077 40.8522 130.034 39.6294V47.0026H127.213ZM133.743 30.8174C132.546 30.8174 131.58 31.2491 130.884 32.0763C130.189 32.9035 129.841 33.9106 129.841 35.0616C129.841 35.7808 129.995 36.4642 130.266 37.1117C130.575 37.7591 131 38.2986 131.541 38.6941C132.121 39.0898 132.816 39.3057 133.589 39.3057C134.362 39.3057 135.134 39.0898 135.714 38.6941C136.294 38.2986 136.758 37.7591 137.028 37.0757C137.337 36.4284 137.453 35.709 137.453 34.9896C137.453 34.2702 137.299 33.6229 137.028 32.9755C136.758 32.3281 136.332 31.8246 135.753 31.4289C135.173 31.0332 134.478 30.8534 133.666 30.8534L133.743 30.8174Z" fill="#242235"/>
<path id="Vector_10" d="M146.693 21.7898C147.002 22.1135 147.157 22.5091 147.157 22.9767C147.157 23.4442 147.002 23.8399 146.693 24.1636C146.384 24.4873 145.959 24.6671 145.418 24.6671C144.877 24.6671 144.413 24.4873 144.104 24.1636C143.795 23.8399 143.641 23.4442 143.641 22.9767C143.641 22.5091 143.795 22.1135 144.104 21.7898C144.413 21.4661 144.877 21.2863 145.418 21.2863C145.959 21.2863 146.384 21.4661 146.693 21.7898ZM143.989 28.8393H146.771V41.1399H143.989V28.8393Z" fill="#242235"/>
<path id="Vector_11" d="M150.206 28.8393H152.176V24.0916H154.997V28.8393H157.548V30.9972H154.997V41.1399H152.176V30.9972H150.206V28.8393Z" fill="#242235"/>
<path id="Vector_12" d="M168.564 40.9961C167.83 41.3198 167.018 41.4996 166.129 41.4996C164.97 41.4996 163.965 41.2118 163.038 40.6364C162.111 40.0609 161.376 39.2697 160.835 38.2986C160.294 37.2914 160.024 36.1765 160.024 34.9176C160.024 33.6589 160.294 32.6158 160.835 31.6088C161.376 30.6376 162.149 29.8463 163.077 29.2708C164.043 28.6954 165.086 28.4436 166.284 28.4436C168.1 28.4436 169.414 29.0551 170.302 30.3139V28.8033H173.123V41.1039H170.302V39.5933C169.878 40.1689 169.297 40.6364 168.525 40.9601L168.564 40.9961ZM164.622 31.3569C164.043 31.7526 163.579 32.2921 163.309 32.9395C162.999 33.5869 162.883 34.2702 162.883 35.0256C162.883 35.7808 163.038 36.4282 163.309 37.0757C163.618 37.7231 164.043 38.2626 164.622 38.6581C165.202 39.0538 165.897 39.2697 166.709 39.2697C167.52 39.2697 168.177 39.0538 168.757 38.6581C169.336 38.2626 169.762 37.7231 170.071 37.0757C170.379 36.4282 170.495 35.709 170.495 34.9896C170.495 34.2702 170.34 33.5869 170.071 32.9395C169.762 32.2921 169.336 31.7886 168.757 31.3929C168.177 30.9972 167.482 30.7816 166.67 30.7816C165.859 30.7816 165.163 30.9972 164.584 31.3929L164.622 31.3569Z" fill="#242235"/>
<path id="Vector_13" d="M177.216 41.14V20.3871H179.998V41.14H177.216Z" fill="#242235"/>
</g>
</g>
</svg>
