<svg width="180" height="60" viewBox="0 0 180 60" fill="none" xmlns="http://www.w3.org/2000/svg">
<g id="binance 2">
<path id="Vector" d="M11.9324 25.9747L18.8854 14.8969L25.8422 25.9806L29.888 19.5344L18.8854 2.00366L7.8866 19.5286L11.9324 25.9747Z" fill="#242235"/>
<path id="Vector_2" d="M9.0783 30.5277L5.03145 24.0798L0.984375 30.528L5.03125 36.9759L9.0783 30.5277Z" fill="#242235"/>
<path id="Vector_3" d="M11.9303 35.0784L18.8834 46.1562L25.8398 35.0729L29.888 41.5153L29.8858 41.519L18.8834 59.0494L7.88419 41.5247L7.87854 41.5158L11.9303 35.0784Z" fill="#242235"/>
<path id="Vector_4" d="M32.737 36.9764L36.784 30.5282L32.7371 24.0803L28.6901 30.5285L32.737 36.9764Z" fill="#242235"/>
<path id="Vector_5" d="M22.9888 30.5238H22.9906L18.8852 23.9827L15.8512 28.8167L15.5025 29.3723L14.7834 30.5181L14.7777 30.5269L14.7834 30.5366L18.8852 37.0719L22.9906 30.5306L22.9926 30.5269L22.9888 30.5238Z" fill="#242235"/>
<path id="Vector_6" d="M43.1008 15.8262H51.9002C54.0841 15.8262 55.7355 16.7192 56.8548 18.5052C57.7209 19.8884 58.1539 21.6028 58.1539 23.6479V23.7344C58.1539 24.5986 58.0868 25.3623 57.952 26.0246C57.8175 26.6877 57.6375 27.2848 57.4128 27.8178C57.1885 28.3513 56.9278 28.8193 56.6314 29.2221C56.3348 29.6259 56.016 29.9718 55.6748 30.2593C56.7725 30.9227 57.6366 31.8224 58.2668 32.9606C58.8965 34.099 59.2118 35.6765 59.2118 37.6928V37.7788C59.2118 39.162 59.0449 40.3716 58.7109 41.4094C58.3771 42.4461 57.8986 43.3106 57.2755 44.0024C56.6525 44.694 55.9036 45.2121 55.028 45.558C54.1525 45.9036 53.1823 46.0763 52.1177 46.0763H43.1008V15.8262ZM51.0203 28.0557C51.9429 28.0557 52.6752 27.8042 53.2173 27.2997C53.7598 26.7955 54.0309 25.9813 54.0309 24.8581V24.7716C54.0309 23.7637 53.7956 22.9932 53.3256 22.4597C52.8554 21.9267 52.1772 21.66 51.2916 21.66H47.1688V28.0557H51.0203ZM52.1326 40.2428C53.0548 40.2428 53.7776 39.9769 54.3024 39.4434C54.8267 38.9105 55.0892 38.082 55.0892 36.9584V36.8723C55.0892 35.8638 54.8448 35.0645 54.3567 34.4734C53.8683 33.8838 53.0818 33.588 51.9969 33.588H47.1688V40.2433L52.1326 40.2428Z" fill="#242235"/>
<path id="Vector_7" d="M64.4446 15.8262H68.6217V46.0771H64.4446V15.8262Z" fill="#242235"/>
<path id="Vector_8" d="M74.9497 15.8262H78.8007L87.6973 34.4522V15.8262H91.8201V46.0771H88.2671L79.0722 26.8463V46.0771H74.9497V15.8262Z" fill="#242235"/>
<path id="Vector_9" d="M104.471 15.6097H108.322L116.46 46.0766H112.093L110.357 39.2919H102.328L100.593 46.0766H96.3335L104.471 15.6097ZM108.865 33.414L106.342 23.6045L103.821 33.414H108.865Z" fill="#242235"/>
<path id="Vector_10" d="M120.962 15.8262H124.814L133.71 34.4522V15.8262H137.833V46.0771H134.28L125.085 26.8463V46.0771H120.962V15.8262Z" fill="#242235"/>
<path id="Vector_11" d="M152.863 46.596C151.47 46.596 150.177 46.1925 148.984 45.3864C147.79 44.5803 146.76 43.4779 145.892 42.0801C145.024 40.6829 144.345 39.0334 143.858 37.1322C143.369 35.2305 143.125 33.1994 143.125 31.0383V30.9522C143.125 28.7914 143.369 26.7679 143.858 24.8806C144.345 22.9936 145.024 21.3369 145.892 19.9109C146.759 18.4849 147.799 17.3608 149.011 16.5398C150.222 15.7189 151.561 15.3085 153.025 15.3085C153.911 15.3085 154.72 15.4242 155.452 15.654C156.184 15.8852 156.849 16.2015 157.446 16.6047C158.043 17.0084 158.594 17.4982 159.101 18.074C159.606 18.6507 160.077 19.2842 160.511 19.9758L157.853 24.859C157.111 23.7934 156.356 22.9571 155.588 22.3525C154.819 21.7479 153.956 21.4451 152.998 21.4451C152.202 21.4451 151.465 21.6902 150.788 22.1799C150.109 22.6697 149.526 23.3464 149.038 24.2106C148.55 25.0748 148.17 26.0764 147.898 27.214C147.628 28.3527 147.492 29.5696 147.492 30.8659V30.952C147.492 32.2482 147.628 33.4733 147.898 34.6247C148.17 35.7778 148.545 36.7858 149.024 37.6498C149.503 38.514 150.082 39.1988 150.76 39.7031C151.438 40.2076 152.184 40.4591 152.998 40.4591C154.083 40.4591 155 40.1424 155.75 39.5085C156.501 38.8754 157.247 38.0108 157.988 36.9154L160.647 41.194C160.158 42.0298 159.651 42.779 159.128 43.4408C158.603 44.1042 158.029 44.6727 157.405 45.1485C156.782 45.6235 156.098 45.9843 155.358 46.2285C154.616 46.4732 153.784 46.596 152.863 46.596Z" fill="#242235"/>
<path id="Vector_12" d="M165.569 15.8262H179.862V21.747H169.692V27.8835H178.643V33.804H169.692V40.1569H180V46.0771H165.569V15.8262Z" fill="#242235"/>
</g>
</svg>
