<svg width="180" height="60" viewBox="0 0 180 60" fill="none" xmlns="http://www.w3.org/2000/svg">
<g id="cboe 3">
<g id="Clip path group">
<mask id="mask0_1436_691" style="mask-type:luminance" maskUnits="userSpaceOnUse" x="1" y="0" width="179" height="60">
<g id="clip0_1_2169">
<path id="Vector" d="M179.764 0H1V59.753H179.764V0Z" fill="white"/>
</g>
</mask>
<g mask="url(#mask0_1436_691)">
<g id="Group">
<path id="Vector_2" d="M80.5441 20.0966H79.6605C75.3004 20.0966 71.5294 21.3488 68.4655 23.6746V5.60559H61.2183V59.0969H67.5228L67.9942 56.0557C71.0581 58.5602 75.0646 59.8125 79.7194 59.8125H79.8372C85.1401 59.753 89.6769 57.9043 92.9175 54.4456C96.217 50.8676 97.9847 45.8584 97.9847 39.9546C98.0436 28.2068 91.2087 20.514 80.5441 20.0966ZM80.0139 53.551H79.7194C73.356 53.551 69.4672 48.3629 69.4672 39.9546C69.4672 31.5461 73.4149 26.3582 79.8372 26.3582H80.4852C86.4363 26.7159 90.0892 31.8445 90.0892 39.895C90.0303 48.1839 86.2006 53.3721 80.0139 53.551ZM118.312 20.0966C112.95 20.0966 108.355 21.9453 105.055 25.5232C101.755 29.1012 99.988 34.1104 99.988 40.0142C99.988 52.1199 105.821 59.9319 118.371 59.9319C123.733 59.9319 128.329 58.0833 131.628 54.5648C134.928 50.9868 136.695 45.9776 136.695 40.0738C136.695 27.9085 129.448 20.0966 118.312 20.0966ZM118.312 53.551C111.949 53.551 108.06 48.3629 108.06 39.9546C108.06 31.5461 112.008 26.3582 118.43 26.3582C124.793 26.3582 128.682 31.5461 128.682 39.9546C128.682 48.3629 124.675 53.551 118.312 53.551ZM146.417 41.8032C146.476 49.4961 150.365 53.551 157.435 53.551C164.388 53.551 168.453 49.6748 168.807 49.2575L171.93 54.4456C171.93 54.4456 166.921 59.8125 156.492 59.8125C146.064 59.8125 138.64 52.5372 138.64 40.0738C138.64 27.4912 146.417 20.1562 156.492 20.1562C166.627 20.1562 172.578 27.8489 172.578 38.7619L172.519 41.8032H146.417ZM156.257 26.0003C149.658 26.0003 146.771 31.4865 146.417 36.138H165.33C165.33 30.9499 162.797 26.0003 156.257 26.0003Z" fill="#242235"/>
<path id="Vector_3" d="M47.4275 23.615L42.714 18.8444L44.7762 16.6975L47.4275 14.014L52.2002 18.8444L47.4275 23.615ZM47.4275 9.72041L42.714 4.94971L45.4242 2.20657L47.4275 0.119385L52.2002 4.94971L47.4275 9.72041ZM54.3211 16.6975L49.5487 11.8672L52.2002 9.24333L54.3211 7.09653L59.0349 11.8672L54.3211 16.6975Z" fill="#242235"/>
<path id="Vector_4" d="M26.5125 52.4777C15.9068 52.4777 9.01314 43.8308 9.01314 31.1884C9.01314 18.5461 16.2603 9.89921 26.7481 9.89921C34.4667 9.89921 37.884 13.835 40.5355 16.6974L45.2491 11.8671C42.7745 9.24322 37.7662 2.86243 26.5125 2.86243C12.6662 2.86243 0.764282 13.4176 0.764282 31.248C0.764282 49.1382 11.4289 59.753 26.1589 59.753C37.1182 59.753 43.069 53.9088 45.3669 50.8676L40.4766 45.918C38.3555 48.4225 33.7596 52.4777 26.5125 52.4777Z" fill="#242235"/>
</g>
</g>
</g>
</g>
</svg>
