<svg width="180" height="60" viewBox="0 0 180 60" fill="none" xmlns="http://www.w3.org/2000/svg">
<g id="jane 1" clip-path="url(#clip0_1436_707)">
<path id="Vector" d="M103.722 27.5877C105.271 27.5877 105.845 28.8597 105.845 30.5172H101.044C101.353 28.613 102.394 27.5877 103.72 27.5877H103.722ZM103.635 24.9993C100.339 24.9993 97.686 27.5877 97.686 31.7874C97.686 36.1818 100.165 38.7259 103.656 38.7259C105.406 38.73 107.114 38.1326 108.543 37.0163L107.194 34.7459C106.199 35.4282 105.092 35.8696 103.899 35.8696C102.258 35.8696 101.322 34.9444 101.043 33.0787H108.699C108.786 32.5005 108.919 31.9339 108.919 30.9624C108.919 27.447 107.039 24.9801 103.633 24.9801M152.44 27.5877C153.988 27.5877 154.562 28.8597 154.562 30.5172H149.762C150.071 28.613 151.111 27.5877 152.438 27.5877H152.44ZM152.352 24.9993C149.057 24.9993 146.403 27.5877 146.403 31.7874C146.403 36.1818 148.882 38.7259 152.373 38.7259C154.141 38.7259 155.801 38.14 157.261 37.0163L155.911 34.7459C154.916 35.4282 153.81 35.8696 152.616 35.8696C150.975 35.8696 150.041 34.9444 149.76 33.0787H157.416C157.503 32.5005 157.636 31.9339 157.636 30.9624C157.636 27.447 155.756 24.9801 152.35 24.9801" fill="#242235"/>
<path id="Vector_2" d="M164.855 27.5825C166.404 27.5825 166.978 28.8547 166.978 30.5122H162.178C162.487 28.608 163.528 27.5825 164.855 27.5825ZM164.768 24.9941C161.472 24.9941 158.819 27.5825 158.819 31.7823C158.819 36.1765 161.299 38.7207 164.79 38.7207C166.54 38.7248 168.249 38.1274 169.676 37.0112L168.328 34.7408C167.333 35.4231 166.225 35.8644 165.032 35.8644C163.392 35.8644 162.458 34.9393 162.177 33.0735H169.833C169.92 32.4955 170.052 31.9287 170.052 30.9574C170.052 27.4419 168.173 24.9749 164.768 24.9749M121.623 28.2977C119.925 27.8235 118.458 27.4111 118.458 26.0233C118.458 24.8611 119.462 24.096 120.958 24.096C122.361 24.096 123.807 24.4757 125.144 25.1947L126.31 22.4616C124.482 21.498 122.679 21.0624 120.803 21.0624C117.475 21.0624 115.15 23.1303 115.15 26.0734C115.15 29.8318 117.94 30.6355 120.387 31.3428C122.112 31.8382 123.602 32.268 123.602 33.6943C123.602 34.9431 122.607 35.689 120.946 35.689C119.506 35.689 117.882 35.1493 116.367 34.1722L114.861 36.8974C116.514 38.0096 118.898 38.7247 120.97 38.7247C124.636 38.7247 126.914 36.7973 126.914 33.6461C126.914 29.7855 123.974 28.9625 121.612 28.3073M76.6814 36.1515C77.6763 36.1515 78.4269 35.689 78.9366 35.053V32.5378C77.1037 32.6611 75.311 33.1738 75.311 34.8505C75.311 35.6331 75.8644 36.1709 76.6814 36.1709V36.1515ZM78.9366 30.5623V29.4154C78.9366 28.4383 78.4129 27.8736 77.301 27.8736C76.1892 27.8736 74.9794 28.3863 73.5183 29.1649L72.3697 26.5284C73.9617 25.6495 75.8191 25.0404 77.4319 25.0404C80.8358 25.0404 82.145 26.8714 82.145 29.558V35.028C82.145 35.7353 82.5221 36.0533 83.119 36.0533V38.5203C80.8847 38.5203 79.9769 38.1348 79.2928 36.9072C78.2978 38.0789 77.1928 38.738 75.6009 38.738C73.5061 38.738 72.0625 37.3465 72.0625 35.2688C72.0625 32.4125 74.5169 30.9226 78.9174 30.5815M85.1229 25.3296H88.1778L88.3522 26.8424C89.2146 25.8403 90.4749 25.0114 91.9568 25.0114C94.6101 25.0114 95.7378 26.8193 95.7378 29.772V38.4394H92.4875V29.6583C92.4875 28.4864 92.0459 27.6809 90.9392 27.6809C89.9443 27.6809 89.082 28.2591 88.3731 29.2189V38.424H85.1438V25.3121" fill="#242235"/>
<path id="Vector_3" d="M129.552 27.8557H127.672V25.3174H129.552V22.0446H132.802V25.3174H135.461V27.8557H132.802V34.3739C132.802 35.3511 133.152 35.8388 133.885 35.8388C134.482 35.8388 135.037 35.619 135.499 35.2529L136.693 37.4019C135.697 38.2463 134.478 38.7092 133.221 38.7202C130.743 38.7202 129.551 37.3769 129.551 34.4471V27.8557M138.174 25.3174H141.141L141.361 27.3449C142.269 25.5872 143.396 24.9512 144.744 24.9512C145.297 24.9512 145.805 25.0475 146.203 25.221L145.739 28.4917C145.229 28.2889 144.689 28.1898 144.147 28.1987C142.93 28.1987 142.112 29.0274 141.382 30.5423V38.4291H138.153V25.3174M172.86 27.8557H170.98V25.3174H172.86V22.0446H176.11V25.3174H178.768V27.8557H176.11V34.3739C176.11 35.3511 176.459 35.8388 177.193 35.8388C177.79 35.8388 178.344 35.619 178.807 35.2529L180.001 37.4019C179.005 38.2463 177.786 38.7092 176.529 38.7202C174.051 38.7202 172.859 37.3769 172.859 34.4471L172.86 27.8557ZM66.4916 21.3373V32.7164C66.4916 34.4742 65.7165 35.4764 64.369 35.4764C63.4646 35.4764 62.7543 34.9868 62.1973 34.1542L59.9805 36.3745C61.1239 37.9165 62.6757 38.726 64.547 38.726C67.7763 38.726 69.8326 36.6983 69.8326 32.7935V21.345H66.4933M40.9781 6.60082C40.8385 6.49675 40.629 6.52759 40.5522 6.68371L38.8974 9.33382C38.8014 9.488 38.8153 9.70387 38.955 9.81566C44.6404 14.2871 48.3584 21.6207 48.3567 29.8986C48.355 43.4866 38.3407 54.5437 26.0133 54.5437C13.6861 54.5437 3.71009 43.4826 3.71009 29.8909C3.71009 16.2993 13.7262 5.24782 26.0535 5.24976C28.6557 5.24779 31.238 5.75211 33.6816 6.73959V6.73767C33.8352 6.80127 34.0308 6.7184 34.0762 6.54108L35.1182 3.519C35.1455 3.4367 35.1437 3.34601 35.1129 3.26522C35.0822 3.1844 35.0248 3.11945 34.9525 3.08342C32.1016 1.92478 29.0877 1.3323 26.0499 1.33338C11.7851 1.33145 0.177039 14.1445 0.175293 29.8949C0.173547 45.6452 11.7834 58.4621 26.0448 58.4621C40.3061 58.4621 51.9176 45.6509 51.9176 29.8986C51.9176 20.2889 47.5975 11.7815 40.9904 6.5777L40.9781 6.60082ZM36.7416 34.7518L39.3251 36.2821C39.4787 36.3707 39.6812 36.3167 39.744 36.1395C40.4734 34.2029 40.8563 32.1289 40.8717 30.0317C40.8987 25.6851 39.3637 21.5041 36.6035 18.405C33.8431 15.3059 30.0825 13.5416 26.146 13.4988H26.0186C17.9017 13.4988 11.2388 20.7939 11.1707 29.7579C11.1432 34.1048 12.6779 38.2865 15.4383 41.3859C18.1987 44.4855 21.9596 46.25 25.8963 46.2927H26.022C29.7603 46.2908 33.359 44.7255 36.0941 41.9118C36.2232 41.7865 36.2686 41.5649 36.129 41.4222L33.9226 39.225C33.7969 39.0978 33.6014 39.121 33.4827 39.2444C31.426 41.2613 28.771 42.3755 26.0203 42.3764H25.9242C19.6927 42.3185 14.6653 36.6752 14.7177 29.7908C14.7701 22.9679 19.8374 17.4171 26.0169 17.4171H26.1128C32.3445 17.475 37.3718 23.1221 37.3195 30.0027C37.3072 31.5061 37.0489 32.9516 36.5916 34.2815C36.5576 34.3654 36.5535 34.4603 36.5799 34.5474C36.6065 34.6345 36.6617 34.7075 36.7346 34.7518H36.7416ZM8.58549 40.7651L11.1794 39.2521C11.354 39.1654 11.5163 39.2425 11.5983 39.4062C14.5658 44.8376 19.9335 48.4763 26.0727 48.459C35.3243 48.4321 42.8652 40.0808 42.839 29.8446C42.8127 19.6085 35.2509 11.3036 25.9801 11.3325C16.7095 11.3614 9.18771 19.7106 9.21389 29.9468C9.21726 31.1099 9.31953 32.2702 9.51938 33.4122C9.55777 33.6011 9.4443 33.7978 9.28198 33.8207L6.4489 34.5995C6.2883 34.6438 6.09978 34.5416 6.07534 34.3604C5.80813 32.911 5.67132 31.4358 5.66688 29.9564C5.65945 23.9967 7.79273 18.277 11.599 14.0512C15.4052 9.82543 20.5737 7.43866 25.9714 7.41417C31.3691 7.40595 36.5495 9.76138 40.3767 13.964C44.2039 18.1666 46.3656 23.8734 46.3877 29.8331C46.3952 35.7932 44.2616 41.5133 40.455 45.7391C36.6484 49.9649 31.4794 52.3515 26.0814 52.3755C18.5754 52.3947 12.0016 47.9098 8.45457 41.2295C8.36728 41.0657 8.43711 40.8538 8.58723 40.767" fill="#242235"/>
</g>
<defs>
<clipPath id="clip0_1436_707">
<rect width="180" height="60" fill="white"/>
</clipPath>
</defs>
</svg>
