<svg width="180" height="60" viewBox="0 0 180 60" fill="none" xmlns="http://www.w3.org/2000/svg">
<g id="okx 2">
<path id="Vector" d="M52.8443 1.64978H2.24541C1.93336 1.64978 1.63408 1.78435 1.41352 2.02421C1.19272 2.26382 1.06885 2.58894 1.06885 2.92818V57.8958C1.06885 58.2347 1.19272 58.56 1.41352 58.7995C1.63408 59.0395 1.93336 59.1738 2.24541 59.1738H52.8443C53.1567 59.1738 53.456 59.0395 53.6766 58.7995C53.8974 58.56 54.0212 58.2347 54.0212 57.8958V2.92818C54.0212 2.58894 53.8974 2.26382 53.6766 2.02421C53.456 1.78435 53.1567 1.64978 52.8443 1.64978ZM36.3704 38.7209C36.3704 39.06 36.2463 39.385 36.0255 39.625C35.805 39.8645 35.5057 39.9994 35.1937 39.9994H19.8963C19.5842 39.9994 19.2849 39.8645 19.0641 39.625C18.8436 39.385 18.7197 39.06 18.7197 38.7209V22.1027C18.7197 21.7637 18.8436 21.4386 19.0641 21.199C19.2849 20.9591 19.5842 20.8246 19.8963 20.8246H35.1937C35.5057 20.8246 35.805 20.9591 36.0255 21.199C36.2463 21.4386 36.3704 21.7637 36.3704 22.1027V38.7209Z" fill="#242235"/>
<path id="Vector_2" d="M158.776 20.8268H143.478C142.828 20.8268 142.302 21.3989 142.302 22.1049V38.7232C142.302 39.4291 142.828 40.0017 143.478 40.0017H158.776C159.425 40.0017 159.952 39.4291 159.952 38.7232V22.1049C159.952 21.3989 159.425 20.8268 158.776 20.8268Z" fill="#242235"/>
<path id="Vector_3" d="M141.124 1.65125H125.827C125.177 1.65125 124.65 2.22342 124.65 2.92965V19.5476C124.65 20.2536 125.177 20.826 125.827 20.826H141.124C141.774 20.826 142.301 20.2536 142.301 19.5476V2.92965C142.301 2.22342 141.774 1.65125 141.124 1.65125Z" fill="#242235"/>
<path id="Vector_4" d="M176.427 1.65125H161.129C160.479 1.65125 159.953 2.22342 159.953 2.92965V19.5476C159.953 20.2536 160.479 20.826 161.129 20.826H176.427C177.077 20.826 177.603 20.2536 177.603 19.5476V2.92965C177.603 2.22342 177.077 1.65125 176.427 1.65125Z" fill="#242235"/>
<path id="Vector_5" d="M141.124 39.9996H125.827C125.177 39.9996 124.65 40.572 124.65 41.2779V57.8961C124.65 58.602 125.177 59.1746 125.827 59.1746H141.124C141.774 59.1746 142.301 58.602 142.301 57.8961V41.2779C142.301 40.572 141.774 39.9996 141.124 39.9996Z" fill="#242235"/>
<path id="Vector_6" d="M176.427 39.9996H161.129C160.479 39.9996 159.953 40.572 159.953 41.2779V57.8961C159.953 58.602 160.479 59.1746 161.129 59.1746H176.427C177.077 59.1746 177.603 58.602 177.603 57.8961V41.2779C177.603 40.572 177.077 39.9996 176.427 39.9996Z" fill="#242235"/>
<path id="Vector_7" d="M114.63 1.65125H99.3325C98.6826 1.65125 98.1555 2.22342 98.1555 2.92965V19.5476C98.1555 20.2536 98.6826 20.826 99.3325 20.826H114.63C115.28 20.826 115.806 20.2536 115.806 19.5476V2.92965C115.806 2.22342 115.28 1.65125 114.63 1.65125Z" fill="#242235"/>
<path id="Vector_8" d="M114.63 39.9996H99.3325C98.6826 39.9996 98.1555 40.572 98.1555 41.2779V57.8961C98.1555 58.602 98.6826 59.1746 99.3325 59.1746H114.63C115.28 59.1746 115.806 58.602 115.806 57.8961V41.2779C115.806 40.572 115.28 39.9996 114.63 39.9996Z" fill="#242235"/>
<path id="Vector_9" d="M98.1429 22.0881C98.1429 21.7491 98.0188 21.424 97.7983 21.1844C97.5775 20.9445 97.2782 20.81 96.9659 20.81H80.4921V2.92794C80.4921 2.5887 80.3678 2.26357 80.1472 2.02397C79.9264 1.78411 79.6271 1.64954 79.3151 1.64954H64.018C63.7058 1.64954 63.4063 1.78411 63.1857 2.02397C62.9649 2.26357 62.8411 2.5887 62.8411 2.92794V57.8669C62.8411 58.2057 62.9649 58.5308 63.1857 58.7705C63.4063 59.0103 63.7058 59.1449 64.018 59.1449H79.3151C79.6271 59.1449 79.9264 59.0103 80.1472 58.7705C80.3678 58.5308 80.4921 58.2057 80.4921 57.8669V39.9848H96.9659C97.2782 39.9848 97.5775 39.8499 97.7983 39.6104C98.0188 39.3704 98.1429 39.0454 98.1429 38.7063V22.0881Z" fill="#242235"/>
</g>
</svg>
