<svg width="180" height="60" viewBox="0 0 180 60" fill="none" xmlns="http://www.w3.org/2000/svg">
<g id="optiver 1">
<g id="Group" opacity="0.9">
<g id="Clip path group">
<mask id="mask0_1436_711" style="mask-type:luminance" maskUnits="userSpaceOnUse" x="0" y="1" width="180" height="59">
<g id="clip0_1_2181">
<path id="Vector" d="M180 59.1123V1.66089L0.954178 1.66089V59.1123L180 59.1123Z" fill="white"/>
</g>
</mask>
<g mask="url(#mask0_1436_711)">
<g id="Group_2">
<path id="Vector_2" d="M71.5792 16.8054V10.7476H69.054V16.8054H71.5792Z" fill="#242235"/>
<path id="Vector_3" d="M71.5792 50.0255V19.7854H69.054V50.0255H71.5792Z" fill="#242235"/>
<path id="Vector_4" d="M87.9949 46.7036L77.8941 19.7854H75.3689L86.7323 50.0255H89.2576L100.58 19.7854H98.055L87.9949 46.7036Z" fill="#242235"/>
<path id="Vector_5" d="M162.365 1.66089H159.84L157.315 8.54921L142.204 50.0257H180L162.365 1.66089ZM149.454 44.0168L158.577 18.9061L167.701 44.0168H149.413H149.454Z" fill="#242235"/>
<path id="Vector_6" d="M125.792 28.872C125.792 23.8891 129.172 19.7854 133.327 19.7854H140.903V22.8143H133.327C130.557 22.8143 128.276 25.5013 128.276 28.872V50.0744H125.751V28.872H125.792Z" fill="#242235"/>
<path id="Vector_7" d="M22.4184 28.872C22.4184 23.8891 19.0379 19.7854 14.8835 19.7854H8.57049C4.41612 19.7854 0.994873 23.8403 0.994873 28.872V40.9877C0.994873 45.9708 4.3754 50.0744 8.52977 50.0744H14.8835C19.0379 50.0744 22.4591 46.0196 22.4591 41.0365V28.872H22.4184ZM19.8932 40.9877C19.8932 44.3098 17.6531 47.0456 14.8428 47.0456H8.48903C5.71944 47.0456 3.43863 44.3586 3.43863 40.9877V28.872C3.43863 25.5501 5.71944 22.8143 8.48903 22.8143H14.802C17.5717 22.8143 19.8524 25.5013 19.8524 28.872V40.9877H19.8932Z" fill="#242235"/>
<path id="Vector_8" d="M46.3695 28.872C46.3695 23.8891 42.989 19.7854 38.7938 19.7854H26.1677V59.1122H28.693V50.0255H38.7938C42.9481 50.0255 46.3695 45.9708 46.3695 40.9389V28.8232V28.872ZM43.8442 40.9877C43.8442 44.3098 41.604 47.0456 38.7938 47.0456H28.693V22.8143H38.7938C41.5633 22.8143 43.8442 25.5013 43.8442 28.872V40.9877Z" fill="#242235"/>
<path id="Vector_9" d="M53.9455 40.9879C53.9455 44.3098 56.1855 47.0456 58.9958 47.0456H65.3089V50.0746H58.9958C54.8415 50.0746 51.4203 46.0196 51.4203 41.0367V22.8631H48.895V19.8343H51.4203V13.7765H53.9455V19.8343H63.3132L62.1727 22.8631H53.9455V40.9879Z" fill="#242235"/>
<path id="Vector_10" d="M119.479 40.9877C119.479 44.3098 117.239 47.0456 114.428 47.0456H109.378C106.608 47.0456 104.327 44.3586 104.327 40.9877V34.93H121.963V28.872C121.963 23.8891 118.583 19.7854 114.388 19.7854H109.337C105.183 19.7854 101.761 23.8403 101.761 28.872V40.9877C101.761 45.9708 105.142 50.0744 109.337 50.0744H114.388C118.542 50.0744 121.963 46.0196 121.963 40.9877H119.438H119.479ZM104.368 28.872C104.368 25.5501 106.608 22.8143 109.419 22.8143H114.469C117.239 22.8143 119.519 25.5013 119.519 28.872V31.901H104.409V28.872H104.368Z" fill="#242235"/>
</g>
</g>
</g>
</g>
</g>
</svg>
