<svg width="180" height="60" viewBox="0 0 180 60" fill="none" xmlns="http://www.w3.org/2000/svg">
<g id="twosigma 2" clip-path="url(#clip0_1436_842)">
<g id="Clip path group">
<mask id="mask0_1436_842" style="mask-type:luminance" maskUnits="userSpaceOnUse" x="0" y="0" width="180" height="61">
<g id="clip0_10394_15538">
<path id="Vector" d="M179.283 0H0.719971V60.0011H179.283V0Z" fill="white"/>
</g>
</mask>
<g mask="url(#mask0_1436_842)">
<g id="Group">
<path id="Vector_2" d="M16.7332 0L0.719971 30.0352L16.7332 60.0011L32.765 30.0352L16.7332 0Z" fill="#393647"/>
<path id="Vector_3" d="M8.2882 38.5268C8.15801 28.921 14.3327 30.174 14.3327 25.2667C14.3327 23.7006 13.6631 22.3085 12.1753 22.3085C11.078 22.3085 10.0364 23.3178 9.27391 24.6403L8.1394 22.5173C9.10652 20.8119 10.6502 19.4198 12.2497 19.4198C14.7976 19.4198 16.1181 22.0996 16.1181 25.2319C16.1181 32.4711 10.1108 31.2182 10.1108 37.2392H16.0065V40.1277H8.30679V38.5963L8.2882 38.5268Z" fill="#F1EAEA"/>
<path id="Vector_4" d="M28.2266 24.327H21.6799C19.0018 24.327 16.9932 28.3295 16.9932 33.6542C16.9932 37.8654 18.4624 40.4411 20.5082 40.4411C23.1865 40.4411 25.2137 36.4385 25.2137 31.1484C25.2137 29.4431 24.9718 27.9815 24.5441 26.8677H26.8317L28.2266 24.327ZM20.657 37.7959C19.4667 37.7959 18.7786 36.369 18.7786 33.6196C18.7786 30.1391 20.0247 26.9721 21.5126 26.9721C22.6842 26.9721 23.3724 28.3991 23.3724 31.1484C23.3909 34.6636 22.1821 37.7959 20.6757 37.7959H20.657Z" fill="#F1EAEA"/>
<path id="Vector_5" d="M45.3353 22.553H39.7744V17.959H53.6117V22.553H48.0878V47.9943H45.3353V22.553Z" fill="#393647"/>
<path id="Vector_6" d="M56.2163 17.959H59.1176L62.8187 40.7204H62.8744L66.3523 17.959H68.9004L72.3783 40.7204H72.4154L76.1165 17.959H79.0178L73.9591 47.9943H71.0019L67.6357 25.9638H67.5799L64.2135 47.9943H61.2565L56.2163 17.959Z" fill="#393647"/>
<path id="Vector_7" d="M88.24 44.0267C91.2715 44.0267 93.615 39.8155 93.615 32.7854C93.615 25.755 91.2901 21.8222 88.24 21.8222C85.1898 21.8222 82.8651 25.9987 82.8651 32.7854C82.8651 39.572 85.2271 44.0267 88.24 44.0267ZM88.24 17.437C92.9082 17.437 96.4233 23.458 96.4233 32.7854C96.4233 42.1127 92.9082 48.4817 88.24 48.4817C83.5718 48.4817 80.0381 42.3213 80.0381 32.7854C80.0381 23.2492 83.5904 17.437 88.24 17.437Z" fill="#393647"/>
<path id="Vector_8" d="M119.97 17.959H122.723V34.1425V47.9943H119.97V31.1842V17.959Z" fill="#393647"/>
<path id="Vector_9" d="M134.513 17.437C136.726 17.437 138.586 18.7247 140.185 20.813C140.185 20.813 138.623 24.2585 138.53 24.1541C137.321 22.7271 136.019 21.8918 134.568 21.8918C131.276 21.8918 129.082 26.3467 129.082 32.7156C129.082 39.6415 131.109 44.0267 134.568 44.0267C135.759 44.0267 136.949 43.4701 137.767 42.5998V35.4652H133.731V31.6716H140.297V45.2796C138.734 47.3332 136.707 48.5163 134.475 48.5163C129.472 48.5163 126.236 42.1473 126.236 32.7505C126.311 23.9453 129.565 17.4718 134.513 17.4718" fill="#393647"/>
<path id="Vector_10" d="M144.242 17.959H147.013L152.294 32.0545L157.614 17.959H160.367V47.9943H157.689V25.6157L152.276 39.7459L146.864 25.6157V47.9943H144.242V17.959Z" fill="#393647"/>
<path id="Vector_11" d="M167.864 37.3445H173.072L170.486 23.3883H170.431L167.845 37.3445H167.864ZM168.85 17.959H172.067L178.019 47.9943H175.062L173.853 41.5557H167.083L165.892 47.9943H162.917L168.85 17.959Z" fill="#393647"/>
<path id="Vector_12" d="M105.744 41.4862C107.176 42.9829 108.552 43.9574 110.301 43.9574C112.402 43.9574 113.444 42.252 113.444 39.8157C113.444 33.0292 104.423 37.4839 104.423 26.0336C104.423 21.2655 106.562 17.4023 110.152 17.4023C112.253 17.4023 114.374 18.342 116.029 20.1866L114.243 23.6321C112.923 22.5532 111.844 21.9616 110.245 21.9616C108.385 21.9616 107.288 23.7366 107.288 25.964C107.288 32.6809 116.308 28.0871 116.308 39.7462C116.308 44.6534 114.318 48.4816 110.282 48.4816C107.92 48.4816 105.372 46.9156 103.865 44.9667L105.725 41.5211L105.744 41.4862Z" fill="#393647"/>
</g>
</g>
</g>
</g>
<defs>
<clipPath id="clip0_1436_842">
<rect width="180" height="60" fill="white"/>
</clipPath>
</defs>
</svg>
