<svg width="180" height="60" viewBox="0 0 180 60" fill="none" xmlns="http://www.w3.org/2000/svg">
<g id="wintermute 2">
<path id="Vector" d="M46.2427 16.5597C46.1652 16.047 46.3202 15.6882 46.5786 15.6882H48.2842C48.4392 15.6882 48.5942 15.9445 48.62 16.2008L50.5583 31.0159H50.6358L53.6077 15.7394C53.6335 15.5344 53.7369 15.3293 53.9178 15.3293H54.2536C54.4346 15.3293 54.5379 15.5344 54.5638 15.7394L57.5615 31.0159H57.639L59.5513 16.2008C59.5772 15.9445 59.7322 15.6882 59.8872 15.6882H61.5928C61.8513 15.6882 62.0063 16.047 61.9288 16.5597L58.3884 41.4736C58.3626 41.7813 58.2076 41.9864 58.0525 41.9864H57.7423C57.5615 41.9864 57.458 41.7813 57.4322 41.5762L54.1245 24.8131H54.0211L50.7133 41.6275C50.6616 41.8325 50.5841 42.0376 50.4033 42.0376H50.0932C49.938 42.0376 49.783 41.8325 49.7572 41.5249L46.2427 16.5597Z" fill="#242235"/>
<path id="Vector_2" d="M65.6516 16.4025C65.6516 16.0437 65.8326 15.6848 66.0134 15.6848H67.7448C67.9258 15.6848 68.1066 16.0437 68.1066 16.4025V40.9576C68.1066 41.3165 67.9258 41.6754 67.7448 41.6754H66.0134C65.8326 41.6754 65.6516 41.3165 65.6516 40.9576V16.4025Z" fill="#242235"/>
<path id="Vector_3" d="M73.1059 15.9958C73.1059 15.6369 73.2869 15.3293 73.4677 15.3293H73.9328L81.7113 31.7337H81.7371V16.4059C81.7371 16.047 81.8922 15.6882 82.099 15.6882H83.8045C83.9855 15.6882 84.1663 16.047 84.1663 16.4059V41.3711C84.1663 41.73 83.9855 42.0376 83.8045 42.0376H83.3394L75.5351 25.0181H75.5093V40.9612C75.5093 41.3201 75.3541 41.6787 75.1475 41.6787H73.4419C73.261 41.6787 73.0801 41.3201 73.0801 40.9612L73.1059 15.9958Z" fill="#242235"/>
<path id="Vector_4" d="M90.8496 20.1448H87.9812C87.7744 20.1448 87.6194 19.7859 87.6194 19.4271V16.4025C87.6194 16.0437 87.7744 15.6848 87.9812 15.6848H96.1473C96.3541 15.6848 96.509 16.0437 96.509 16.4025V19.4271C96.509 19.7859 96.3541 20.1448 96.1473 20.1448H93.2788V40.9576C93.2788 41.3165 93.0978 41.6754 92.917 41.6754H91.1856C91.0048 41.6754 90.8238 41.3165 90.8238 40.9576V20.1448H90.8496Z" fill="#242235"/>
<path id="Vector_5" d="M99.9917 16.4025C99.9917 16.0437 100.147 15.6848 100.353 15.6848H107.951C108.158 15.6848 108.313 16.0437 108.313 16.4025V19.4271C108.313 19.7859 108.158 20.1448 107.951 20.1448H102.421V26.2451H107.047C107.228 26.2451 107.408 26.6039 107.408 26.9628V30.0387C107.408 30.4486 107.228 30.7563 107.047 30.7563H102.421V37.2668H107.951C108.158 37.2668 108.313 37.6257 108.313 37.9844V41.0089C108.313 41.3678 108.158 41.7267 107.951 41.7267H100.353C100.147 41.7267 99.9917 41.3678 99.9917 41.0089V16.4025Z" fill="#242235"/>
<path id="Vector_6" d="M112.688 16.4025C112.688 16.0437 112.843 15.6848 113.05 15.6848H118.399C120.647 15.6848 122.482 19.222 122.482 23.6307C122.482 27.0141 121.345 29.8336 119.717 31.1152L122.276 40.5477C122.405 41.0089 122.276 41.6242 121.965 41.6242H120.001C119.821 41.6242 119.743 41.4191 119.691 41.2653L117.21 31.4228H115.143V40.8551C115.143 41.214 114.962 41.5729 114.781 41.5729H113.05C112.843 41.5729 112.688 41.214 112.688 40.8551V16.4025ZM118.167 27.4754C119.149 27.4754 120.027 25.7837 120.027 23.6819C120.027 21.7339 119.174 20.0935 118.167 20.0935H115.117V27.4754H118.167Z" fill="#242235"/>
<path id="Vector_7" d="M128.01 15.8349C128.036 15.5273 128.139 15.271 128.346 15.271H128.656C128.811 15.271 128.914 15.4248 128.966 15.6298L133.075 33.1107C133.101 33.1107 133.101 33.1107 133.126 33.1107L137.235 15.6298C137.287 15.4248 137.39 15.271 137.545 15.271H137.855C138.063 15.271 138.166 15.5273 138.192 15.8349L140.388 40.749C140.44 41.2617 140.285 41.6204 140.052 41.6204H138.372C138.192 41.6204 138.063 41.313 138.011 41.0566L136.899 27.0103C136.874 27.0103 136.848 27.0103 136.848 27.0103L133.566 41.5691C133.54 41.7742 133.411 41.9793 133.256 41.9793H132.945C132.765 41.9793 132.687 41.7742 132.636 41.5691L129.328 27.0103C129.328 27.0103 129.302 27.0103 129.276 27.0103L128.191 41.0566C128.165 41.313 128.01 41.6204 127.855 41.6204H126.175C125.942 41.6204 125.787 41.2617 125.813 40.749L128.01 15.8349Z" fill="#242235"/>
<path id="Vector_8" d="M144.264 16.4025C144.264 16.0437 144.445 15.6848 144.625 15.6848H146.409C146.615 15.6848 146.77 16.0437 146.77 16.4025V31.5766C146.77 34.7037 147.856 37.2155 149.484 37.2155C151.112 37.2155 152.224 34.755 152.224 31.6279V16.4538C152.224 16.0949 152.379 15.7361 152.585 15.7361H154.369C154.549 15.7361 154.73 16.0949 154.73 16.4538V31.884C154.73 37.5232 152.482 42.0856 149.51 42.0856C146.59 42.0856 144.316 37.5232 144.316 31.884V16.4025H144.264Z" fill="#242235"/>
<path id="Vector_9" d="M161.29 20.1448H158.422C158.215 20.1448 158.059 19.7859 158.059 19.4271V16.4025C158.059 16.0437 158.215 15.6848 158.422 15.6848H166.588C166.794 15.6848 166.949 16.0437 166.949 16.4025V19.4271C166.949 19.7859 166.794 20.1448 166.588 20.1448H163.719V40.9576C163.719 41.3165 163.564 41.6754 163.358 41.6754H161.626C161.445 41.6754 161.264 41.3165 161.264 40.9576V20.1448H161.29Z" fill="#242235"/>
<path id="Vector_10" d="M170.441 16.4025C170.441 16.0437 170.596 15.6848 170.803 15.6848H178.401C178.608 15.6848 178.762 16.0437 178.762 16.4025V19.4271C178.762 19.7859 178.608 20.1448 178.401 20.1448H172.87V26.2451H177.496C177.678 26.2451 177.858 26.6039 177.858 26.9628V30.0387C177.858 30.4486 177.702 30.7563 177.496 30.7563H172.87V37.2668H178.401C178.608 37.2668 178.762 37.6257 178.762 37.9844V41.0089C178.762 41.3678 178.608 41.7267 178.401 41.7267H170.803C170.596 41.7267 170.441 41.3678 170.441 41.0089V16.4025Z" fill="#242235"/>
<path id="Vector_11" d="M0.142212 37.3713C0.142212 37.4223 0.142212 37.4735 0.142212 37.5248C0.142212 37.5761 0.142212 37.6274 0.142212 37.6786V37.7299C0.142212 37.7812 0.142212 37.7812 0.142212 37.8325C0.142212 37.8837 0.142212 37.935 0.142212 37.9863C0.142212 38.0375 0.142212 38.0888 0.168054 38.1401C0.168054 38.1914 0.193895 38.2426 0.193895 38.2939C0.193895 38.3452 0.219738 38.3965 0.219738 38.4477C0.219738 38.499 0.24558 38.5503 0.24558 38.5503C0.271422 38.6015 0.271423 38.6528 0.297265 38.6528C0.323106 38.7041 0.323106 38.7554 0.348949 38.7554C0.374791 38.8066 0.37479 38.8066 0.400633 38.8579C0.426475 38.9089 0.426475 38.9092 0.452318 38.9602C0.478159 39.0115 0.504001 39.0115 0.529843 39.0627C0.555686 39.0627 0.555686 39.114 0.581527 39.114L18.8261 57.21H18.8519C18.8519 57.21 18.8777 57.21 18.8777 57.2613H18.9035C18.9294 57.2613 18.9294 57.2613 18.9552 57.3125C18.9812 57.3125 18.981 57.3125 19.007 57.3125H19.0328H19.0587C19.0845 57.3125 19.0845 57.3125 19.1103 57.3125C19.1362 57.3125 19.1362 57.3125 19.162 57.3125C19.1878 57.3125 19.1878 57.3125 19.2137 57.3125C19.2395 57.3125 19.2395 57.3125 19.2653 57.3125C19.2912 57.3125 19.2912 57.3125 19.317 57.3125H19.343H19.3688C19.3946 57.3125 19.3946 57.3125 19.4205 57.3125C19.4463 57.3125 19.4463 57.3125 19.4721 57.2613H19.498C19.498 57.2613 19.5238 57.2613 19.5238 57.21H19.5496L37.7942 39.114C37.82 39.114 37.82 39.0627 37.8459 39.0627C37.8717 39.0115 37.8975 39.0115 37.9234 38.9602C37.9492 38.9092 37.9492 38.9089 37.975 38.8579C38.0009 38.8066 38.0009 38.8066 38.0267 38.7554C38.0527 38.7041 38.0525 38.7041 38.0785 38.6528C38.1043 38.6015 38.1043 38.5503 38.1302 38.5503C38.156 38.499 38.156 38.4477 38.156 38.4477C38.156 38.3965 38.1818 38.3452 38.1818 38.2939C38.1818 38.2426 38.2077 38.1914 38.2077 38.1401C38.2077 38.0888 38.2077 38.0375 38.2335 37.9863C38.2335 37.935 38.2335 37.8837 38.2335 37.8325C38.2335 37.7812 38.2335 37.7812 38.2335 37.7299V37.6786C38.2335 37.6274 38.2335 37.5761 38.2335 37.5248C38.2335 37.4735 38.2335 37.4223 38.2335 37.3713C38.2335 37.32 38.2077 37.2687 38.2077 37.2175C38.2077 37.1662 38.1818 37.1149 38.1818 37.0636V37.0124L29.0595 0.820219C29.0595 0.820219 29.0595 0.768955 29.0337 0.768955C29.0079 0.666425 28.982 0.563899 28.9304 0.512635L28.9045 0.461375C28.8527 0.358849 28.8269 0.307582 28.7752 0.256318C28.7494 0.256318 28.7494 0.205059 28.7236 0.205059C28.6719 0.153795 28.6461 0.102526 28.5944 0.102526C28.5686 0.102526 28.5686 0.10253 28.5428 0.0512667C28.491 3.12924e-06 28.4135 0 28.3618 0H28.336C28.2843 0 28.2326 3.12924e-06 28.2068 0.0512667C28.181 0.0512667 28.181 0.0512621 28.155 0.102526C28.1033 0.102526 28.0775 0.153795 28.0517 0.205059H28.0258C28 0.205059 28 0.256318 27.9742 0.256318C27.9483 0.307582 27.9225 0.307579 27.8967 0.358844C27.8708 0.410108 27.8708 0.410114 27.845 0.461375C27.8192 0.51264 27.8192 0.51264 27.7932 0.563902C27.7674 0.615166 27.7674 0.615164 27.7415 0.666428C27.7157 0.717693 27.7157 0.768955 27.6899 0.768955C27.6641 0.820216 27.6641 0.871478 27.6641 0.871478C27.6641 0.922743 27.6382 0.974007 27.6382 1.02527C27.6382 1.07653 27.6124 1.1278 27.6124 1.17906C27.6124 1.23033 27.6124 1.28159 27.5866 1.33286C27.5866 1.38412 27.5866 1.43539 27.5866 1.48665C27.5866 1.53791 27.5866 1.53791 27.5866 1.58917V34.1416L19.7564 18.6087C19.7306 18.5574 19.6788 18.4549 19.6271 18.4036C19.6013 18.4036 19.6013 18.3524 19.5755 18.3524C19.5496 18.3011 19.5238 18.3011 19.498 18.2498C19.4721 18.2498 19.4463 18.1986 19.4205 18.1986C19.3946 18.1986 19.3688 18.1473 19.343 18.1473C19.2912 18.1473 19.2395 18.096 19.1878 18.096C19.1362 18.096 19.0845 18.096 19.0328 18.1473C19.007 18.1473 18.9812 18.1986 18.9552 18.1986C18.9294 18.1986 18.9035 18.2498 18.8777 18.2498C18.8519 18.2498 18.8261 18.3011 18.8002 18.3524C18.7744 18.3524 18.7744 18.4036 18.7486 18.4036C18.6969 18.4549 18.6711 18.5062 18.6193 18.6087L10.7892 34.1416V1.58917C10.7892 1.53791 10.7892 1.53791 10.7892 1.48665C10.7892 1.43539 10.7892 1.38412 10.7892 1.33286C10.7892 1.28159 10.7892 1.23033 10.7633 1.17906C10.7633 1.1278 10.7375 1.07653 10.7375 1.02527C10.7375 0.974007 10.7116 0.922743 10.7116 0.871478C10.7116 0.820216 10.6858 0.768955 10.6858 0.768955C10.6599 0.71769 10.6599 0.666428 10.6341 0.666428C10.6083 0.615164 10.6083 0.563902 10.5824 0.563902C10.5566 0.51264 10.5566 0.51264 10.5307 0.461375C10.5049 0.410114 10.5049 0.410108 10.4791 0.358844C10.4532 0.307579 10.4274 0.307582 10.4015 0.256318C10.3757 0.256318 10.3757 0.205059 10.3499 0.205059H10.324C10.2982 0.153795 10.2465 0.153789 10.2206 0.102526C10.1948 0.102526 10.1948 0.10253 10.169 0.0512667C10.1173 0.0512667 10.0914 0 10.0397 0H10.0139C9.96222 0 9.88468 3.12924e-06 9.833 0.0512667C9.80716 0.0512667 9.80716 0.0512621 9.78133 0.102526C9.72964 0.153789 9.67796 0.153795 9.65211 0.205059C9.62627 0.205059 9.62627 0.256318 9.60042 0.256318C9.54874 0.307582 9.49705 0.410114 9.47122 0.461375L9.44537 0.512635C9.41953 0.615164 9.36785 0.666425 9.342 0.768955C9.342 0.768955 9.342 0.820219 9.31616 0.820219L0.193895 37.0124V37.0636C0.193895 37.1149 0.168054 37.1662 0.168054 37.2175C0.168054 37.2687 0.142212 37.32 0.142212 37.3713ZM9.67796 39.2165L15.2599 50.2895L4.09606 39.2165H9.67796ZM28.5428 39.2165H34.1245L22.9608 50.2895L28.5428 39.2165ZM29.0079 36.192V7.89458L36.1403 36.192H29.0079ZM19.8856 52.1351V23.2224L27.1731 37.6786L19.8856 52.1351ZM18.3609 52.1351L11.0734 37.6786L18.3609 23.2224V52.1351ZM2.10621 36.192L9.23863 7.89458V36.192H2.10621Z" fill="#242235"/>
</g>
</svg>
